<svg width="174" height="51" viewBox="0 0 174 51" fill="none" xmlns="http://www.w3.org/2000/svg">
<path d="M24.9401 18.1254C25.3287 17.4796 26.265 17.4796 26.6537 18.1254L28.2117 20.7143C28.3513 20.9463 28.5791 21.1118 28.8429 21.1729L31.7865 21.8546C32.5208 22.0247 32.8102 22.9151 32.3161 23.4844L30.3353 25.7661C30.1578 25.9706 30.0708 26.2384 30.0942 26.5081L30.3555 29.5184C30.4207 30.2693 29.6632 30.8196 28.9691 30.5256L26.187 29.3469C25.9376 29.2413 25.6561 29.2413 25.4068 29.3469L22.6246 30.5256C21.9306 30.8196 21.1731 30.2693 21.2383 29.5184L21.4995 26.5081C21.5229 26.2384 21.4359 25.9706 21.2584 25.7661L19.2777 23.4844C18.7836 22.9151 19.0729 22.0247 19.8072 21.8546L22.7509 21.1729C23.0147 21.1118 23.2424 20.9463 23.382 20.7143L24.9401 18.1254Z" fill="#F2C94C"/>
<path d="M56.9401 18.1254C57.3287 17.4796 58.265 17.4796 58.6537 18.1254L60.2117 20.7143C60.3513 20.9463 60.5791 21.1118 60.8429 21.1729L63.7865 21.8546C64.5208 22.0247 64.8102 22.9151 64.3161 23.4844L62.3353 25.7661C62.1578 25.9706 62.0708 26.2384 62.0942 26.5081L62.3555 29.5184C62.4207 30.2693 61.6632 30.8196 60.9691 30.5256L58.187 29.3469C57.9376 29.2413 57.6561 29.2413 57.4068 29.3469L54.6246 30.5256C53.9306 30.8196 53.1731 30.2693 53.2383 29.5184L53.4995 26.5081C53.5229 26.2384 53.4359 25.9706 53.2584 25.7661L51.2777 23.4844C50.7836 22.9151 51.0729 22.0247 51.8072 21.8546L54.7509 21.1729C55.0147 21.1118 55.2424 20.9463 55.382 20.7143L56.9401 18.1254Z" fill="#F2C94C"/>
<path d="M88.9401 18.1254C89.3287 17.4796 90.265 17.4796 90.6537 18.1254L92.2117 20.7143C92.3513 20.9463 92.5791 21.1118 92.8429 21.1729L95.7865 21.8546C96.5208 22.0247 96.8102 22.9151 96.3161 23.4844L94.3353 25.7661C94.1578 25.9706 94.0708 26.2384 94.0942 26.5081L94.3555 29.5184C94.4207 30.2693 93.6632 30.8196 92.9691 30.5256L90.187 29.3469C89.9376 29.2413 89.6561 29.2413 89.4068 29.3469L86.6246 30.5256C85.9306 30.8196 85.1731 30.2693 85.2383 29.5184L85.4995 26.5081C85.5229 26.2384 85.4359 25.9706 85.2584 25.7661L83.2777 23.4844C82.7836 22.9151 83.0729 22.0247 83.8072 21.8546L86.7509 21.1729C87.0147 21.1118 87.2424 20.9463 87.382 20.7143L88.9401 18.1254Z" fill="#F2C94C"/>
<path d="M120.94 18.1254C121.329 17.4796 122.265 17.4796 122.654 18.1254L124.212 20.7143C124.351 20.9463 124.579 21.1118 124.843 21.1729L127.787 21.8546C128.521 22.0247 128.81 22.9151 128.316 23.4844L126.335 25.7661C126.158 25.9706 126.071 26.2384 126.094 26.5081L126.355 29.5184C126.421 30.2693 125.663 30.8196 124.969 30.5256L122.187 29.3469C121.938 29.2413 121.656 29.2413 121.407 29.3469L118.625 30.5256C117.931 30.8196 117.173 30.2693 117.238 29.5184L117.5 26.5081C117.523 26.2384 117.436 25.9706 117.258 25.7661L115.278 23.4844C114.784 22.9151 115.073 22.0247 115.807 21.8546L118.751 21.1729C119.015 21.1118 119.242 20.9463 119.382 20.7143L120.94 18.1254Z" fill="#F2C94C"/>
<path d="M152.596 18.1762C152.985 17.5303 153.921 17.5303 154.31 18.1762L155.868 20.7651C156.008 20.9971 156.235 21.1625 156.499 21.2236L159.443 21.9054C160.177 22.0755 160.466 22.9659 159.972 23.5351L157.992 25.8169C157.814 26.0214 157.727 26.2891 157.75 26.5589L158.012 29.5691C158.077 30.3201 157.319 30.8704 156.625 30.5764L153.843 29.3977C153.594 29.2921 153.312 29.2921 153.063 29.3977L150.281 30.5764C149.587 30.8704 148.829 30.3201 148.895 29.5691L149.156 26.5589C149.179 26.2891 149.092 26.0214 148.915 25.8169L146.934 23.5351C146.44 22.9659 146.729 22.0755 147.463 21.9054L150.407 21.2236C150.671 21.1625 150.899 20.9971 151.038 20.7651L152.596 18.1762Z" fill="#F2C94C"/>
<path d="M153.703 23.7524L154.115 24.4361L154.892 24.6162L154.369 25.2188L154.438 26.0137L153.703 25.7024L152.968 26.0137L153.037 25.2188L152.514 24.6162L153.292 24.4361L153.703 23.7524Z" fill="#F2C94C"/>
<path d="M153.703 23.7524L154.115 24.4361L154.892 24.6162L154.369 25.2188L154.438 26.0137L153.703 25.7024L152.968 26.0137L153.037 25.2188L152.514 24.6162L153.292 24.4361L153.703 23.7524Z" fill="#F2C94C"/>
<path d="M153.703 23.7524L154.115 24.4361L154.892 24.6162L154.369 25.2188L154.438 26.0137L153.703 25.7024L152.968 26.0137L153.037 25.2188L152.514 24.6162L153.292 24.4361L153.703 23.7524Z" fill="#F2C94C"/>
<path d="M153.703 23.7524L154.115 24.4361L154.892 24.6162L154.369 25.2188L154.438 26.0137L153.703 25.7024L152.968 26.0137L153.037 25.2188L152.514 24.6162L153.292 24.4361L153.703 23.7524Z" fill="#F2C94C"/>
<path d="M153.703 23.7524L154.115 24.4361L154.892 24.6162L154.369 25.2188L154.438 26.0137L153.703 25.7024L152.968 26.0137L153.037 25.2188L152.514 24.6162L153.292 24.4361L153.703 23.7524Z" fill="#F2C94C"/>
</svg>
