<svg width="40" height="40" viewBox="0 0 40 40" fill="none" xmlns="http://www.w3.org/2000/svg">
<path fill-rule="evenodd" clip-rule="evenodd" d="M24.3516 2.92668C23.6633 2.84001 23.0466 3.34501 22.9716 4.03001C22.8949 4.71668 23.39 5.33335 24.075 5.41001C29.7033 6.03502 34.0733 10.4017 34.705 16.0283C34.7766 16.6667 35.3166 17.1383 35.945 17.1383C35.9916 17.1383 36.04 17.135 36.0866 17.13C36.7716 17.055 37.2649 16.435 37.1883 15.7483C36.4266 8.95501 31.1483 3.68168 24.3516 2.92668Z" fill="#FAFAFA"/>
<path fill-rule="evenodd" clip-rule="evenodd" d="M28.8195 16.146C28.9361 16.7427 29.4595 17.156 30.0445 17.156C30.1245 17.156 30.2045 17.1493 30.2861 17.1343C30.9628 17.0027 31.4061 16.3443 31.2745 15.6677C30.5961 12.1977 27.9178 9.51934 24.4511 8.84601C23.7895 8.71434 23.1178 9.15767 22.9861 9.83601C22.8545 10.5127 23.2978 11.1693 23.9761 11.301C26.4361 11.7793 28.3395 13.681 28.8195 16.146Z" fill="#FAFAFA"/>
<path fill-rule="evenodd" clip-rule="evenodd" d="M25.8768 23.0797C24.2135 23.8897 22.7735 24.593 19.0285 20.848C15.2851 17.103 15.9851 15.6647 16.7968 13.9997C17.9718 11.5864 18.4468 9.39136 13.1101 4.99636C11.8351 3.95469 10.4518 3.55469 9.00679 3.83469C5.95179 4.40636 3.79345 7.80636 3.79679 7.80636C2.44345 9.69969 0.590119 15.393 12.5351 27.3397C20.3918 35.198 25.5451 37.083 28.6718 37.083C30.2985 37.083 31.3768 36.573 32.0001 36.1247C32.0335 36.1047 35.4635 33.9797 36.0435 30.8647C36.3135 29.4164 35.9201 28.038 34.8768 26.763C30.4835 21.4314 28.2885 21.9047 25.8768 23.0797Z" fill="#FAFAFA"/>
</svg>
