<svg width="44" height="45" viewBox="0 0 44 45" fill="none" xmlns="http://www.w3.org/2000/svg">
<path d="M6.86364 12.7273C10.102 12.7273 12.7273 10.102 12.7273 6.86364C12.7273 3.62524 10.102 1 6.86364 1C3.62524 1 1 3.62524 1 6.86364C1 10.102 3.62524 12.7273 6.86364 12.7273Z" stroke="#035371" stroke-width="2" stroke-miterlimit="10" stroke-linecap="round" stroke-linejoin="round"/>
<path d="M6.86377 12.7273V44" stroke="#035371" stroke-width="2" stroke-miterlimit="10" stroke-linecap="round" stroke-linejoin="round"/>
<path d="M21.409 36.1819C24.6474 36.1819 27.2727 33.5566 27.2727 30.3182C27.2727 27.0798 24.6474 24.4546 21.409 24.4546C18.1706 24.4546 15.5454 27.0798 15.5454 30.3182C15.5454 33.5566 18.1706 36.1819 21.409 36.1819Z" stroke="#035371" stroke-width="2" stroke-miterlimit="10" stroke-linecap="round" stroke-linejoin="round"/>
<path d="M21.4092 1V24.4545" stroke="#035371" stroke-width="2" stroke-miterlimit="10" stroke-linecap="round" stroke-linejoin="round"/>
<path d="M21.4092 36.1818V43.9999" stroke="#035371" stroke-width="2" stroke-miterlimit="10" stroke-linecap="round" stroke-linejoin="round"/>
<path d="M36.9545 24.4546C40.1929 24.4546 42.8181 21.8293 42.8181 18.5909C42.8181 15.3525 40.1929 12.7273 36.9545 12.7273C33.7161 12.7273 31.0908 15.3525 31.0908 18.5909C31.0908 21.8293 33.7161 24.4546 36.9545 24.4546Z" stroke="#035371" stroke-width="2" stroke-miterlimit="10" stroke-linecap="round" stroke-linejoin="round"/>
<path d="M36.9546 24.4546V44" stroke="#035371" stroke-width="2" stroke-miterlimit="10" stroke-linecap="round" stroke-linejoin="round"/>
<path d="M36.9546 1V12.7273" stroke="#035371" stroke-width="2" stroke-miterlimit="10" stroke-linecap="round" stroke-linejoin="round"/>
</svg>
