<svg width="41" height="45" viewBox="0 0 41 45" fill="none" xmlns="http://www.w3.org/2000/svg">
<path fill-rule="evenodd" clip-rule="evenodd" d="M9.89657 0C11.7433 0 13.3144 1.17394 13.8966 2.8125H24.0345C24.8152 2.8125 25.4483 3.44211 25.4483 4.21875V19.6875H39.5863C40.1077 19.6875 40.5867 19.973 40.8327 20.4303C41.0787 20.8876 41.0518 21.4422 40.7626 21.8737L35.1074 30.3114C34.8724 30.6619 34.4918 30.8891 34.0705 30.9307C33.6489 30.9721 33.231 30.8236 32.9313 30.5257L30.5179 28.125H18.8408C17.4457 31.0463 14.6463 33.1757 11.3104 33.6504V39.375H21.2069C21.287 39.375 21.3653 39.3815 21.4416 39.3941C22.0182 37.7457 23.5943 36.5625 25.4483 36.5625C27.7907 36.5625 29.6897 38.4514 29.6897 40.7812C29.6897 43.1111 27.7907 45 25.4483 45C23.5943 45 22.0182 43.8168 21.4413 42.1681C21.3653 42.1807 21.287 42.1875 21.2069 42.1875H9.89657C9.52161 42.1875 9.16202 42.0393 8.89688 41.7757C8.63173 41.5119 8.48278 41.1542 8.48278 40.7812V33.6504C3.68676 32.9678 0 28.8653 0 23.9062C0 18.4697 4.43084 14.0625 9.89657 14.0625C13.8445 14.0625 17.2526 16.3618 18.8408 19.6875H22.6207V5.625H13.8966C13.3144 7.26356 11.7433 8.4375 9.89657 8.4375C7.55411 8.4375 5.65518 6.54871 5.65518 4.21875C5.65518 1.88879 7.55411 0 9.89657 0ZM9.89657 2.8125C9.11576 2.8125 8.48278 3.44211 8.48278 4.21875C8.48278 4.99539 9.11576 5.625 9.89657 5.625C10.6774 5.625 11.3104 4.99539 11.3104 4.21875C11.3104 3.44211 10.6774 2.8125 9.89657 2.8125ZM19.693 22.5C19.7589 22.9593 19.7931 23.4287 19.7931 23.9062C19.7931 24.3838 19.7589 24.8532 19.693 25.3125H31.1035C31.4785 25.3125 31.8381 25.4607 32.1033 25.7243L33.7114 27.324L36.9445 22.5H19.693ZM9.89657 16.875C5.99249 16.875 2.82759 20.023 2.82759 23.9062C2.82759 27.7895 5.99249 30.9375 9.89657 30.9375C13.8007 30.9375 16.9656 27.7895 16.9656 23.9062C16.9656 20.023 13.8007 16.875 9.89657 16.875ZM25.4483 42.1875C26.229 42.1875 26.8621 41.5578 26.8621 40.7812C26.8621 40.0047 26.229 39.375 25.4483 39.375C24.6676 39.375 24.0345 40.0047 24.0345 40.7812C24.0345 41.5578 24.6676 42.1875 25.4483 42.1875Z" fill="#035371"/>
</svg>
