<svg width="46" height="46" viewBox="0 0 46 46" fill="none" xmlns="http://www.w3.org/2000/svg">
<path d="M17.1254 1C15.9585 1 14.8393 1.46357 14.0141 2.28873C13.189 3.11389 12.7254 4.23305 12.7254 5.4C12.7254 6.56695 13.189 7.68611 14.0141 8.51127C14.8393 9.33643 15.9585 9.8 17.1254 9.8H21.5254V5.4C21.527 4.82374 21.415 4.25282 21.1959 3.71984C20.9769 3.18685 20.6549 2.70223 20.2486 2.29365C19.8422 1.88507 19.3593 1.56054 18.8275 1.33857C18.2957 1.11661 17.7254 1.00156 17.1492 1M17.1492 12.7254H5.4C4.82218 12.7254 4.25003 12.8392 3.71619 13.0603C3.18236 13.2815 2.69731 13.6056 2.28873 14.0141C1.88015 14.4227 1.55605 14.9078 1.33493 15.4416C1.11381 15.9754 1 16.5476 1 17.1254C1 17.7032 1.11381 18.2754 1.33493 18.8092C1.55605 19.343 1.88015 19.8281 2.28873 20.2367C2.69731 20.6453 3.18236 20.9694 3.71619 21.1905C4.25003 21.4116 4.82218 21.5254 5.4 21.5254H17.1254C18.2924 21.5254 19.4115 21.0618 20.2367 20.2367C21.0618 19.4115 21.5254 18.2924 21.5254 17.1254C21.5254 15.9585 21.0618 14.8393 20.2367 14.0141C19.4115 13.189 18.2924 12.7254 17.1254 12.7254" stroke="#035371" stroke-width="1.3125" stroke-linecap="round" stroke-linejoin="round"/>
<path d="M17.1254 1C15.9585 1 14.8393 1.46357 14.0141 2.28873C13.189 3.11389 12.7254 4.23305 12.7254 5.4C12.7254 6.56695 13.189 7.68611 14.0141 8.51127C14.8393 9.33643 15.9585 9.8 17.1254 9.8H21.5254V5.4C21.527 4.82374 21.415 4.25282 21.1959 3.71984C20.9769 3.18685 20.6549 2.70223 20.2486 2.29365C19.8422 1.88507 19.3593 1.56054 18.8275 1.33857C18.2957 1.11661 17.7254 1.00156 17.1492 1M17.1492 12.7254H5.4C4.82218 12.7254 4.25003 12.8392 3.71619 13.0603C3.18236 13.2815 2.69731 13.6056 2.28873 14.0141C1.88015 14.4227 1.55605 14.9078 1.33493 15.4416C1.11381 15.9754 1 16.5476 1 17.1254C1 17.7032 1.11381 18.2754 1.33493 18.8092C1.55605 19.343 1.88015 19.8281 2.28873 20.2367C2.69731 20.6453 3.18236 20.9694 3.71619 21.1905C4.25003 21.4116 4.82218 21.5254 5.4 21.5254H17.1254C18.2924 21.5254 19.4115 21.0618 20.2367 20.2367C21.0618 19.4115 21.5254 18.2924 21.5254 17.1254C21.5254 15.9585 21.0618 14.8393 20.2367 14.0141C19.4115 13.189 18.2924 12.7254 17.1254 12.7254" stroke="#035371" stroke-width="1.3125" stroke-linecap="round" stroke-linejoin="round"/>
<path d="M17.1254 1C15.9585 1 14.8393 1.46357 14.0141 2.28873C13.189 3.11389 12.7254 4.23305 12.7254 5.4C12.7254 6.56695 13.189 7.68611 14.0141 8.51127C14.8393 9.33643 15.9585 9.8 17.1254 9.8H21.5254V5.4C21.527 4.82374 21.415 4.25282 21.1959 3.71984C20.9769 3.18685 20.6549 2.70223 20.2486 2.29365C19.8422 1.88507 19.3593 1.56054 18.8275 1.33857C18.2957 1.11661 17.7254 1.00156 17.1492 1M17.1492 12.7254H5.4C4.82218 12.7254 4.25003 12.8392 3.71619 13.0603C3.18236 13.2815 2.69731 13.6056 2.28873 14.0141C1.88015 14.4227 1.55605 14.9078 1.33493 15.4416C1.11381 15.9754 1 16.5476 1 17.1254C1 17.7032 1.11381 18.2754 1.33493 18.8092C1.55605 19.343 1.88015 19.8281 2.28873 20.2367C2.69731 20.6453 3.18236 20.9694 3.71619 21.1905C4.25003 21.4116 4.82218 21.5254 5.4 21.5254H17.1254C18.2924 21.5254 19.4115 21.0618 20.2367 20.2367C21.0618 19.4115 21.5254 18.2924 21.5254 17.1254C21.5254 15.9585 21.0618 14.8393 20.2367 14.0141C19.4115 13.189 18.2924 12.7254 17.1254 12.7254" stroke="#035371" stroke-width="1.3125" stroke-linecap="round" stroke-linejoin="round"/>
<path d="M17.1254 1C15.9585 1 14.8393 1.46357 14.0141 2.28873C13.189 3.11389 12.7254 4.23305 12.7254 5.4C12.7254 6.56695 13.189 7.68611 14.0141 8.51127C14.8393 9.33643 15.9585 9.8 17.1254 9.8H21.5254V5.4C21.527 4.82374 21.415 4.25282 21.1959 3.71984C20.9769 3.18685 20.6549 2.70223 20.2486 2.29365C19.8422 1.88507 19.3593 1.56054 18.8275 1.33857C18.2957 1.11661 17.7254 1.00156 17.1492 1M17.1492 12.7254H5.4C4.82218 12.7254 4.25003 12.8392 3.71619 13.0603C3.18236 13.2815 2.69731 13.6056 2.28873 14.0141C1.88015 14.4227 1.55605 14.9078 1.33493 15.4416C1.11381 15.9754 1 16.5476 1 17.1254C1 17.7032 1.11381 18.2754 1.33493 18.8092C1.55605 19.343 1.88015 19.8281 2.28873 20.2367C2.69731 20.6453 3.18236 20.9694 3.71619 21.1905C4.25003 21.4116 4.82218 21.5254 5.4 21.5254H17.1254C18.2924 21.5254 19.4115 21.0618 20.2367 20.2367C21.0618 19.4115 21.5254 18.2924 21.5254 17.1254C21.5254 15.9585 21.0618 14.8393 20.2367 14.0141C19.4115 13.189 18.2924 12.7254 17.1254 12.7254" stroke="#035371" stroke-width="1.3125" stroke-linecap="round" stroke-linejoin="round"/>
<path d="M17.1254 1C15.9585 1 14.8393 1.46357 14.0141 2.28873C13.189 3.11389 12.7254 4.23305 12.7254 5.4C12.7254 6.56695 13.189 7.68611 14.0141 8.51127C14.8393 9.33643 15.9585 9.8 17.1254 9.8H21.5254V5.4C21.527 4.82374 21.415 4.25282 21.1959 3.71984C20.9769 3.18685 20.6549 2.70223 20.2486 2.29365C19.8422 1.88507 19.3593 1.56054 18.8275 1.33857C18.2957 1.11661 17.7254 1.00156 17.1492 1M17.1492 12.7254H5.4C4.82218 12.7254 4.25003 12.8392 3.71619 13.0603C3.18236 13.2815 2.69731 13.6056 2.28873 14.0141C1.88015 14.4227 1.55605 14.9078 1.33493 15.4416C1.11381 15.9754 1 16.5476 1 17.1254C1 17.7032 1.11381 18.2754 1.33493 18.8092C1.55605 19.343 1.88015 19.8281 2.28873 20.2367C2.69731 20.6453 3.18236 20.9694 3.71619 21.1905C4.25003 21.4116 4.82218 21.5254 5.4 21.5254H17.1254C18.2924 21.5254 19.4115 21.0618 20.2367 20.2367C21.0618 19.4115 21.5254 18.2924 21.5254 17.1254C21.5254 15.9585 21.0618 14.8393 20.2367 14.0141C19.4115 13.189 18.2924 12.7254 17.1254 12.7254" stroke="#035371" stroke-width="1.3125" stroke-linecap="round" stroke-linejoin="round"/>
<path d="M17.1254 1C15.9585 1 14.8393 1.46357 14.0141 2.28873C13.189 3.11389 12.7254 4.23305 12.7254 5.4C12.7254 6.56695 13.189 7.68611 14.0141 8.51127C14.8393 9.33643 15.9585 9.8 17.1254 9.8H21.5254V5.4C21.527 4.82374 21.415 4.25282 21.1959 3.71984C20.9769 3.18685 20.6549 2.70223 20.2486 2.29365C19.8422 1.88507 19.3593 1.56054 18.8275 1.33857C18.2957 1.11661 17.7254 1.00156 17.1492 1M17.1492 12.7254H5.4C4.82218 12.7254 4.25003 12.8392 3.71619 13.0603C3.18236 13.2815 2.69731 13.6056 2.28873 14.0141C1.88015 14.4227 1.55605 14.9078 1.33493 15.4416C1.11381 15.9754 1 16.5476 1 17.1254C1 17.7032 1.11381 18.2754 1.33493 18.8092C1.55605 19.343 1.88015 19.8281 2.28873 20.2367C2.69731 20.6453 3.18236 20.9694 3.71619 21.1905C4.25003 21.4116 4.82218 21.5254 5.4 21.5254H17.1254C18.2924 21.5254 19.4115 21.0618 20.2367 20.2367C21.0618 19.4115 21.5254 18.2924 21.5254 17.1254C21.5254 15.9585 21.0618 14.8393 20.2367 14.0141C19.4115 13.189 18.2924 12.7254 17.1254 12.7254" stroke="#035371" stroke-width="1.3125" stroke-linecap="round" stroke-linejoin="round"/>
<path d="M17.1254 1C15.9585 1 14.8393 1.46357 14.0141 2.28873C13.189 3.11389 12.7254 4.23305 12.7254 5.4C12.7254 6.56695 13.189 7.68611 14.0141 8.51127C14.8393 9.33643 15.9585 9.8 17.1254 9.8H21.5254V5.4C21.527 4.82374 21.415 4.25282 21.1959 3.71984C20.9769 3.18685 20.6549 2.70223 20.2486 2.29365C19.8422 1.88507 19.3593 1.56054 18.8275 1.33857C18.2957 1.11661 17.7254 1.00156 17.1492 1M17.1492 12.7254H5.4C4.82218 12.7254 4.25003 12.8392 3.71619 13.0603C3.18236 13.2815 2.69731 13.6056 2.28873 14.0141C1.88015 14.4227 1.55605 14.9078 1.33493 15.4416C1.11381 15.9754 1 16.5476 1 17.1254C1 17.7032 1.11381 18.2754 1.33493 18.8092C1.55605 19.343 1.88015 19.8281 2.28873 20.2367C2.69731 20.6453 3.18236 20.9694 3.71619 21.1905C4.25003 21.4116 4.82218 21.5254 5.4 21.5254H17.1254C18.2924 21.5254 19.4115 21.0618 20.2367 20.2367C21.0618 19.4115 21.5254 18.2924 21.5254 17.1254C21.5254 15.9585 21.0618 14.8393 20.2367 14.0141C19.4115 13.189 18.2924 12.7254 17.1254 12.7254" stroke="#035371" stroke-width="1.3125" stroke-linecap="round" stroke-linejoin="round"/>
<path d="M17.1254 1C15.9585 1 14.8393 1.46357 14.0141 2.28873C13.189 3.11389 12.7254 4.23305 12.7254 5.4C12.7254 6.56695 13.189 7.68611 14.0141 8.51127C14.8393 9.33643 15.9585 9.8 17.1254 9.8H21.5254V5.4C21.527 4.82374 21.415 4.25282 21.1959 3.71984C20.9769 3.18685 20.6549 2.70223 20.2486 2.29365C19.8422 1.88507 19.3593 1.56054 18.8275 1.33857C18.2957 1.11661 17.7254 1.00156 17.1492 1M17.1492 12.7254H5.4C4.82218 12.7254 4.25003 12.8392 3.71619 13.0603C3.18236 13.2815 2.69731 13.6056 2.28873 14.0141C1.88015 14.4227 1.55605 14.9078 1.33493 15.4416C1.11381 15.9754 1 16.5476 1 17.1254C1 17.7032 1.11381 18.2754 1.33493 18.8092C1.55605 19.343 1.88015 19.8281 2.28873 20.2367C2.69731 20.6453 3.18236 20.9694 3.71619 21.1905C4.25003 21.4116 4.82218 21.5254 5.4 21.5254H17.1254C18.2924 21.5254 19.4115 21.0618 20.2367 20.2367C21.0618 19.4115 21.5254 18.2924 21.5254 17.1254C21.5254 15.9585 21.0618 14.8393 20.2367 14.0141C19.4115 13.189 18.2924 12.7254 17.1254 12.7254" stroke="#035371" stroke-width="1.3125" stroke-linecap="round" stroke-linejoin="round"/>
<path d="M45 17.1254C45 15.9584 44.5364 14.8393 43.7113 14.0141C42.8861 13.189 41.767 12.7254 40.6 12.7254C39.4331 12.7254 38.3139 13.189 37.4887 14.0141C36.6636 14.8393 36.2 15.9584 36.2 17.1254V21.5254H40.6C41.767 21.5254 42.8861 21.0618 43.7113 20.2367C44.5364 19.4115 45 18.2924 45 17.1254ZM33.2746 17.1254V5.4C33.2746 4.82218 33.1608 4.25003 32.9397 3.71619C32.7186 3.18236 32.3945 2.69731 31.9859 2.28873C31.5773 1.88015 31.0922 1.55605 30.5584 1.33493C30.0246 1.11381 29.4524 1 28.8746 1C28.2968 1 27.7246 1.11381 27.1908 1.33493C26.657 1.55605 26.1719 1.88015 25.7633 2.28873C25.3548 2.69731 25.0307 3.18236 24.8095 3.71619C24.5884 4.25003 24.4746 4.82218 24.4746 5.4V17.1254C24.4746 18.2924 24.9382 19.4115 25.7633 20.2367C26.5885 21.0618 27.7077 21.5254 28.8746 21.5254C30.0416 21.5254 31.1607 21.0618 31.9859 20.2367C32.811 19.4115 33.2746 18.2924 33.2746 17.1254Z" stroke="#035371" stroke-width="1.3125" stroke-linecap="round" stroke-linejoin="round"/>
<path d="M45 17.1254C45 15.9584 44.5364 14.8393 43.7113 14.0141C42.8861 13.189 41.767 12.7254 40.6 12.7254C39.4331 12.7254 38.3139 13.189 37.4887 14.0141C36.6636 14.8393 36.2 15.9584 36.2 17.1254V21.5254H40.6C41.767 21.5254 42.8861 21.0618 43.7113 20.2367C44.5364 19.4115 45 18.2924 45 17.1254ZM33.2746 17.1254V5.4C33.2746 4.82218 33.1608 4.25003 32.9397 3.71619C32.7186 3.18236 32.3945 2.69731 31.9859 2.28873C31.5773 1.88015 31.0922 1.55605 30.5584 1.33493C30.0246 1.11381 29.4524 1 28.8746 1C28.2968 1 27.7246 1.11381 27.1908 1.33493C26.657 1.55605 26.1719 1.88015 25.7633 2.28873C25.3548 2.69731 25.0307 3.18236 24.8095 3.71619C24.5884 4.25003 24.4746 4.82218 24.4746 5.4V17.1254C24.4746 18.2924 24.9382 19.4115 25.7633 20.2367C26.5885 21.0618 27.7077 21.5254 28.8746 21.5254C30.0416 21.5254 31.1607 21.0618 31.9859 20.2367C32.811 19.4115 33.2746 18.2924 33.2746 17.1254Z" stroke="#035371" stroke-width="1.3125" stroke-linecap="round" stroke-linejoin="round"/>
<path d="M45 17.1254C45 15.9584 44.5364 14.8393 43.7113 14.0141C42.8861 13.189 41.767 12.7254 40.6 12.7254C39.4331 12.7254 38.3139 13.189 37.4887 14.0141C36.6636 14.8393 36.2 15.9584 36.2 17.1254V21.5254H40.6C41.767 21.5254 42.8861 21.0618 43.7113 20.2367C44.5364 19.4115 45 18.2924 45 17.1254ZM33.2746 17.1254V5.4C33.2746 4.82218 33.1608 4.25003 32.9397 3.71619C32.7186 3.18236 32.3945 2.69731 31.9859 2.28873C31.5773 1.88015 31.0922 1.55605 30.5584 1.33493C30.0246 1.11381 29.4524 1 28.8746 1C28.2968 1 27.7246 1.11381 27.1908 1.33493C26.657 1.55605 26.1719 1.88015 25.7633 2.28873C25.3548 2.69731 25.0307 3.18236 24.8095 3.71619C24.5884 4.25003 24.4746 4.82218 24.4746 5.4V17.1254C24.4746 18.2924 24.9382 19.4115 25.7633 20.2367C26.5885 21.0618 27.7077 21.5254 28.8746 21.5254C30.0416 21.5254 31.1607 21.0618 31.9859 20.2367C32.811 19.4115 33.2746 18.2924 33.2746 17.1254Z" stroke="#035371" stroke-width="1.3125" stroke-linecap="round" stroke-linejoin="round"/>
<path d="M45 17.1254C45 15.9584 44.5364 14.8393 43.7113 14.0141C42.8861 13.189 41.767 12.7254 40.6 12.7254C39.4331 12.7254 38.3139 13.189 37.4887 14.0141C36.6636 14.8393 36.2 15.9584 36.2 17.1254V21.5254H40.6C41.767 21.5254 42.8861 21.0618 43.7113 20.2367C44.5364 19.4115 45 18.2924 45 17.1254ZM33.2746 17.1254V5.4C33.2746 4.82218 33.1608 4.25003 32.9397 3.71619C32.7186 3.18236 32.3945 2.69731 31.9859 2.28873C31.5773 1.88015 31.0922 1.55605 30.5584 1.33493C30.0246 1.11381 29.4524 1 28.8746 1C28.2968 1 27.7246 1.11381 27.1908 1.33493C26.657 1.55605 26.1719 1.88015 25.7633 2.28873C25.3548 2.69731 25.0307 3.18236 24.8095 3.71619C24.5884 4.25003 24.4746 4.82218 24.4746 5.4V17.1254C24.4746 18.2924 24.9382 19.4115 25.7633 20.2367C26.5885 21.0618 27.7077 21.5254 28.8746 21.5254C30.0416 21.5254 31.1607 21.0618 31.9859 20.2367C32.811 19.4115 33.2746 18.2924 33.2746 17.1254Z" stroke="#035371" stroke-width="1.3125" stroke-linecap="round" stroke-linejoin="round"/>
<path d="M45 17.1254C45 15.9584 44.5364 14.8393 43.7113 14.0141C42.8861 13.189 41.767 12.7254 40.6 12.7254C39.4331 12.7254 38.3139 13.189 37.4887 14.0141C36.6636 14.8393 36.2 15.9584 36.2 17.1254V21.5254H40.6C41.767 21.5254 42.8861 21.0618 43.7113 20.2367C44.5364 19.4115 45 18.2924 45 17.1254ZM33.2746 17.1254V5.4C33.2746 4.82218 33.1608 4.25003 32.9397 3.71619C32.7186 3.18236 32.3945 2.69731 31.9859 2.28873C31.5773 1.88015 31.0922 1.55605 30.5584 1.33493C30.0246 1.11381 29.4524 1 28.8746 1C28.2968 1 27.7246 1.11381 27.1908 1.33493C26.657 1.55605 26.1719 1.88015 25.7633 2.28873C25.3548 2.69731 25.0307 3.18236 24.8095 3.71619C24.5884 4.25003 24.4746 4.82218 24.4746 5.4V17.1254C24.4746 18.2924 24.9382 19.4115 25.7633 20.2367C26.5885 21.0618 27.7077 21.5254 28.8746 21.5254C30.0416 21.5254 31.1607 21.0618 31.9859 20.2367C32.811 19.4115 33.2746 18.2924 33.2746 17.1254Z" stroke="#035371" stroke-width="1.3125" stroke-linecap="round" stroke-linejoin="round"/>
<path d="M45 17.1254C45 15.9584 44.5364 14.8393 43.7113 14.0141C42.8861 13.189 41.767 12.7254 40.6 12.7254C39.4331 12.7254 38.3139 13.189 37.4887 14.0141C36.6636 14.8393 36.2 15.9584 36.2 17.1254V21.5254H40.6C41.767 21.5254 42.8861 21.0618 43.7113 20.2367C44.5364 19.4115 45 18.2924 45 17.1254ZM33.2746 17.1254V5.4C33.2746 4.82218 33.1608 4.25003 32.9397 3.71619C32.7186 3.18236 32.3945 2.69731 31.9859 2.28873C31.5773 1.88015 31.0922 1.55605 30.5584 1.33493C30.0246 1.11381 29.4524 1 28.8746 1C28.2968 1 27.7246 1.11381 27.1908 1.33493C26.657 1.55605 26.1719 1.88015 25.7633 2.28873C25.3548 2.69731 25.0307 3.18236 24.8095 3.71619C24.5884 4.25003 24.4746 4.82218 24.4746 5.4V17.1254C24.4746 18.2924 24.9382 19.4115 25.7633 20.2367C26.5885 21.0618 27.7077 21.5254 28.8746 21.5254C30.0416 21.5254 31.1607 21.0618 31.9859 20.2367C32.811 19.4115 33.2746 18.2924 33.2746 17.1254Z" stroke="#035371" stroke-width="1.3125" stroke-linecap="round" stroke-linejoin="round"/>
<path d="M45 17.1254C45 15.9584 44.5364 14.8393 43.7113 14.0141C42.8861 13.189 41.767 12.7254 40.6 12.7254C39.4331 12.7254 38.3139 13.189 37.4887 14.0141C36.6636 14.8393 36.2 15.9584 36.2 17.1254V21.5254H40.6C41.767 21.5254 42.8861 21.0618 43.7113 20.2367C44.5364 19.4115 45 18.2924 45 17.1254ZM33.2746 17.1254V5.4C33.2746 4.82218 33.1608 4.25003 32.9397 3.71619C32.7186 3.18236 32.3945 2.69731 31.9859 2.28873C31.5773 1.88015 31.0922 1.55605 30.5584 1.33493C30.0246 1.11381 29.4524 1 28.8746 1C28.2968 1 27.7246 1.11381 27.1908 1.33493C26.657 1.55605 26.1719 1.88015 25.7633 2.28873C25.3548 2.69731 25.0307 3.18236 24.8095 3.71619C24.5884 4.25003 24.4746 4.82218 24.4746 5.4V17.1254C24.4746 18.2924 24.9382 19.4115 25.7633 20.2367C26.5885 21.0618 27.7077 21.5254 28.8746 21.5254C30.0416 21.5254 31.1607 21.0618 31.9859 20.2367C32.811 19.4115 33.2746 18.2924 33.2746 17.1254Z" stroke="#035371" stroke-width="1.3125" stroke-linecap="round" stroke-linejoin="round"/>
<path d="M45 17.1254C45 15.9584 44.5364 14.8393 43.7113 14.0141C42.8861 13.189 41.767 12.7254 40.6 12.7254C39.4331 12.7254 38.3139 13.189 37.4887 14.0141C36.6636 14.8393 36.2 15.9584 36.2 17.1254V21.5254H40.6C41.767 21.5254 42.8861 21.0618 43.7113 20.2367C44.5364 19.4115 45 18.2924 45 17.1254ZM33.2746 17.1254V5.4C33.2746 4.82218 33.1608 4.25003 32.9397 3.71619C32.7186 3.18236 32.3945 2.69731 31.9859 2.28873C31.5773 1.88015 31.0922 1.55605 30.5584 1.33493C30.0246 1.11381 29.4524 1 28.8746 1C28.2968 1 27.7246 1.11381 27.1908 1.33493C26.657 1.55605 26.1719 1.88015 25.7633 2.28873C25.3548 2.69731 25.0307 3.18236 24.8095 3.71619C24.5884 4.25003 24.4746 4.82218 24.4746 5.4V17.1254C24.4746 18.2924 24.9382 19.4115 25.7633 20.2367C26.5885 21.0618 27.7077 21.5254 28.8746 21.5254C30.0416 21.5254 31.1607 21.0618 31.9859 20.2367C32.811 19.4115 33.2746 18.2924 33.2746 17.1254Z" stroke="#035371" stroke-width="1.3125" stroke-linecap="round" stroke-linejoin="round"/>
<path d="M28.8746 45C30.0416 45 31.1607 44.5364 31.9859 43.7113C32.811 42.8861 33.2746 41.767 33.2746 40.6C33.2746 39.4331 32.811 38.3139 31.9859 37.4887C31.1607 36.6636 30.0416 36.2 28.8746 36.2H24.4746V40.6C24.4746 41.767 24.9382 42.8861 25.7633 43.7113C26.5885 44.5364 27.7077 45 28.8746 45ZM28.8746 33.2746H40.6C41.1778 33.2746 41.75 33.1608 42.2838 32.9397C42.8177 32.7186 43.3027 32.3945 43.7113 31.9859C44.1199 31.5773 44.444 31.0922 44.6651 30.5584C44.8862 30.0246 45 29.4524 45 28.8746C45 28.2968 44.8862 27.7246 44.6651 27.1908C44.444 26.657 44.1199 26.1719 43.7113 25.7633C43.3027 25.3548 42.8177 25.0307 42.2838 24.8095C41.75 24.5884 41.1778 24.4746 40.6 24.4746H28.8746C27.7077 24.4746 26.5885 24.9382 25.7633 25.7633C24.9382 26.5885 24.4746 27.7077 24.4746 28.8746C24.4746 30.0416 24.9382 31.1607 25.7633 31.9859C26.5885 32.811 27.7077 33.2746 28.8746 33.2746Z" stroke="#035371" stroke-width="1.3125" stroke-linecap="round" stroke-linejoin="round"/>
<path d="M28.8746 45C30.0416 45 31.1607 44.5364 31.9859 43.7113C32.811 42.8861 33.2746 41.767 33.2746 40.6C33.2746 39.4331 32.811 38.3139 31.9859 37.4887C31.1607 36.6636 30.0416 36.2 28.8746 36.2H24.4746V40.6C24.4746 41.767 24.9382 42.8861 25.7633 43.7113C26.5885 44.5364 27.7077 45 28.8746 45ZM28.8746 33.2746H40.6C41.1778 33.2746 41.75 33.1608 42.2838 32.9397C42.8177 32.7186 43.3027 32.3945 43.7113 31.9859C44.1199 31.5773 44.444 31.0922 44.6651 30.5584C44.8862 30.0246 45 29.4524 45 28.8746C45 28.2968 44.8862 27.7246 44.6651 27.1908C44.444 26.657 44.1199 26.1719 43.7113 25.7633C43.3027 25.3548 42.8177 25.0307 42.2838 24.8095C41.75 24.5884 41.1778 24.4746 40.6 24.4746H28.8746C27.7077 24.4746 26.5885 24.9382 25.7633 25.7633C24.9382 26.5885 24.4746 27.7077 24.4746 28.8746C24.4746 30.0416 24.9382 31.1607 25.7633 31.9859C26.5885 32.811 27.7077 33.2746 28.8746 33.2746Z" stroke="#035371" stroke-width="1.3125" stroke-linecap="round" stroke-linejoin="round"/>
<path d="M28.8746 45C30.0416 45 31.1607 44.5364 31.9859 43.7113C32.811 42.8861 33.2746 41.767 33.2746 40.6C33.2746 39.4331 32.811 38.3139 31.9859 37.4887C31.1607 36.6636 30.0416 36.2 28.8746 36.2H24.4746V40.6C24.4746 41.767 24.9382 42.8861 25.7633 43.7113C26.5885 44.5364 27.7077 45 28.8746 45ZM28.8746 33.2746H40.6C41.1778 33.2746 41.75 33.1608 42.2838 32.9397C42.8177 32.7186 43.3027 32.3945 43.7113 31.9859C44.1199 31.5773 44.444 31.0922 44.6651 30.5584C44.8862 30.0246 45 29.4524 45 28.8746C45 28.2968 44.8862 27.7246 44.6651 27.1908C44.444 26.657 44.1199 26.1719 43.7113 25.7633C43.3027 25.3548 42.8177 25.0307 42.2838 24.8095C41.75 24.5884 41.1778 24.4746 40.6 24.4746H28.8746C27.7077 24.4746 26.5885 24.9382 25.7633 25.7633C24.9382 26.5885 24.4746 27.7077 24.4746 28.8746C24.4746 30.0416 24.9382 31.1607 25.7633 31.9859C26.5885 32.811 27.7077 33.2746 28.8746 33.2746Z" stroke="#035371" stroke-width="1.3125" stroke-linecap="round" stroke-linejoin="round"/>
<path d="M28.8746 45C30.0416 45 31.1607 44.5364 31.9859 43.7113C32.811 42.8861 33.2746 41.767 33.2746 40.6C33.2746 39.4331 32.811 38.3139 31.9859 37.4887C31.1607 36.6636 30.0416 36.2 28.8746 36.2H24.4746V40.6C24.4746 41.767 24.9382 42.8861 25.7633 43.7113C26.5885 44.5364 27.7077 45 28.8746 45ZM28.8746 33.2746H40.6C41.1778 33.2746 41.75 33.1608 42.2838 32.9397C42.8177 32.7186 43.3027 32.3945 43.7113 31.9859C44.1199 31.5773 44.444 31.0922 44.6651 30.5584C44.8862 30.0246 45 29.4524 45 28.8746C45 28.2968 44.8862 27.7246 44.6651 27.1908C44.444 26.657 44.1199 26.1719 43.7113 25.7633C43.3027 25.3548 42.8177 25.0307 42.2838 24.8095C41.75 24.5884 41.1778 24.4746 40.6 24.4746H28.8746C27.7077 24.4746 26.5885 24.9382 25.7633 25.7633C24.9382 26.5885 24.4746 27.7077 24.4746 28.8746C24.4746 30.0416 24.9382 31.1607 25.7633 31.9859C26.5885 32.811 27.7077 33.2746 28.8746 33.2746Z" stroke="#035371" stroke-width="1.3125" stroke-linecap="round" stroke-linejoin="round"/>
<path d="M28.8746 45C30.0416 45 31.1607 44.5364 31.9859 43.7113C32.811 42.8861 33.2746 41.767 33.2746 40.6C33.2746 39.4331 32.811 38.3139 31.9859 37.4887C31.1607 36.6636 30.0416 36.2 28.8746 36.2H24.4746V40.6C24.4746 41.767 24.9382 42.8861 25.7633 43.7113C26.5885 44.5364 27.7077 45 28.8746 45ZM28.8746 33.2746H40.6C41.1778 33.2746 41.75 33.1608 42.2838 32.9397C42.8177 32.7186 43.3027 32.3945 43.7113 31.9859C44.1199 31.5773 44.444 31.0922 44.6651 30.5584C44.8862 30.0246 45 29.4524 45 28.8746C45 28.2968 44.8862 27.7246 44.6651 27.1908C44.444 26.657 44.1199 26.1719 43.7113 25.7633C43.3027 25.3548 42.8177 25.0307 42.2838 24.8095C41.75 24.5884 41.1778 24.4746 40.6 24.4746H28.8746C27.7077 24.4746 26.5885 24.9382 25.7633 25.7633C24.9382 26.5885 24.4746 27.7077 24.4746 28.8746C24.4746 30.0416 24.9382 31.1607 25.7633 31.9859C26.5885 32.811 27.7077 33.2746 28.8746 33.2746Z" stroke="#035371" stroke-width="1.3125" stroke-linecap="round" stroke-linejoin="round"/>
<path d="M28.8746 45C30.0416 45 31.1607 44.5364 31.9859 43.7113C32.811 42.8861 33.2746 41.767 33.2746 40.6C33.2746 39.4331 32.811 38.3139 31.9859 37.4887C31.1607 36.6636 30.0416 36.2 28.8746 36.2H24.4746V40.6C24.4746 41.767 24.9382 42.8861 25.7633 43.7113C26.5885 44.5364 27.7077 45 28.8746 45ZM28.8746 33.2746H40.6C41.1778 33.2746 41.75 33.1608 42.2838 32.9397C42.8177 32.7186 43.3027 32.3945 43.7113 31.9859C44.1199 31.5773 44.444 31.0922 44.6651 30.5584C44.8862 30.0246 45 29.4524 45 28.8746C45 28.2968 44.8862 27.7246 44.6651 27.1908C44.444 26.657 44.1199 26.1719 43.7113 25.7633C43.3027 25.3548 42.8177 25.0307 42.2838 24.8095C41.75 24.5884 41.1778 24.4746 40.6 24.4746H28.8746C27.7077 24.4746 26.5885 24.9382 25.7633 25.7633C24.9382 26.5885 24.4746 27.7077 24.4746 28.8746C24.4746 30.0416 24.9382 31.1607 25.7633 31.9859C26.5885 32.811 27.7077 33.2746 28.8746 33.2746Z" stroke="#035371" stroke-width="1.3125" stroke-linecap="round" stroke-linejoin="round"/>
<path d="M28.8746 45C30.0416 45 31.1607 44.5364 31.9859 43.7113C32.811 42.8861 33.2746 41.767 33.2746 40.6C33.2746 39.4331 32.811 38.3139 31.9859 37.4887C31.1607 36.6636 30.0416 36.2 28.8746 36.2H24.4746V40.6C24.4746 41.767 24.9382 42.8861 25.7633 43.7113C26.5885 44.5364 27.7077 45 28.8746 45ZM28.8746 33.2746H40.6C41.1778 33.2746 41.75 33.1608 42.2838 32.9397C42.8177 32.7186 43.3027 32.3945 43.7113 31.9859C44.1199 31.5773 44.444 31.0922 44.6651 30.5584C44.8862 30.0246 45 29.4524 45 28.8746C45 28.2968 44.8862 27.7246 44.6651 27.1908C44.444 26.657 44.1199 26.1719 43.7113 25.7633C43.3027 25.3548 42.8177 25.0307 42.2838 24.8095C41.75 24.5884 41.1778 24.4746 40.6 24.4746H28.8746C27.7077 24.4746 26.5885 24.9382 25.7633 25.7633C24.9382 26.5885 24.4746 27.7077 24.4746 28.8746C24.4746 30.0416 24.9382 31.1607 25.7633 31.9859C26.5885 32.811 27.7077 33.2746 28.8746 33.2746Z" stroke="#035371" stroke-width="1.3125" stroke-linecap="round" stroke-linejoin="round"/>
<path d="M28.8746 45C30.0416 45 31.1607 44.5364 31.9859 43.7113C32.811 42.8861 33.2746 41.767 33.2746 40.6C33.2746 39.4331 32.811 38.3139 31.9859 37.4887C31.1607 36.6636 30.0416 36.2 28.8746 36.2H24.4746V40.6C24.4746 41.767 24.9382 42.8861 25.7633 43.7113C26.5885 44.5364 27.7077 45 28.8746 45ZM28.8746 33.2746H40.6C41.1778 33.2746 41.75 33.1608 42.2838 32.9397C42.8177 32.7186 43.3027 32.3945 43.7113 31.9859C44.1199 31.5773 44.444 31.0922 44.6651 30.5584C44.8862 30.0246 45 29.4524 45 28.8746C45 28.2968 44.8862 27.7246 44.6651 27.1908C44.444 26.657 44.1199 26.1719 43.7113 25.7633C43.3027 25.3548 42.8177 25.0307 42.2838 24.8095C41.75 24.5884 41.1778 24.4746 40.6 24.4746H28.8746C27.7077 24.4746 26.5885 24.9382 25.7633 25.7633C24.9382 26.5885 24.4746 27.7077 24.4746 28.8746C24.4746 30.0416 24.9382 31.1607 25.7633 31.9859C26.5885 32.811 27.7077 33.2746 28.8746 33.2746Z" stroke="#035371" stroke-width="1.3125" stroke-linecap="round" stroke-linejoin="round"/>
<path d="M12.7254 28.8746V40.6C12.7254 41.767 13.189 42.8861 14.0141 43.7113C14.8393 44.5364 15.9584 45 17.1254 45C18.2924 45 19.4115 44.5364 20.2367 43.7113C21.0618 42.8861 21.5254 41.767 21.5254 40.6V28.8746C21.5285 28.2979 21.4177 27.7263 21.1991 27.1926C20.9806 26.6589 20.6588 26.1737 20.2521 25.7648C19.8454 25.3559 19.3619 25.0314 18.8294 24.81C18.2969 24.5886 17.7259 24.4746 17.1492 24.4746C15.9822 24.4746 14.8631 24.9382 14.0379 25.7633C13.2128 26.5885 12.7492 27.7077 12.7492 28.8746M1 28.8746C1 30.0416 1.46357 31.1607 2.28873 31.9859C3.11389 32.811 4.23305 33.2746 5.4 33.2746C6.56695 33.2746 7.68611 32.811 8.51127 31.9859C9.33643 31.1607 9.8 30.0416 9.8 28.8746V24.4746H5.4C4.23305 24.4746 3.11389 24.9382 2.28873 25.7633C1.46357 26.5885 1 27.7077 1 28.8746Z" stroke="#035371" stroke-width="1.3125" stroke-linecap="round" stroke-linejoin="round"/>
<path d="M12.7254 28.8746V40.6C12.7254 41.767 13.189 42.8861 14.0141 43.7113C14.8393 44.5364 15.9584 45 17.1254 45C18.2924 45 19.4115 44.5364 20.2367 43.7113C21.0618 42.8861 21.5254 41.767 21.5254 40.6V28.8746C21.5285 28.2979 21.4177 27.7263 21.1991 27.1926C20.9806 26.6589 20.6588 26.1737 20.2521 25.7648C19.8454 25.3559 19.3619 25.0314 18.8294 24.81C18.2969 24.5886 17.7259 24.4746 17.1492 24.4746C15.9822 24.4746 14.8631 24.9382 14.0379 25.7633C13.2128 26.5885 12.7492 27.7077 12.7492 28.8746M1 28.8746C1 30.0416 1.46357 31.1607 2.28873 31.9859C3.11389 32.811 4.23305 33.2746 5.4 33.2746C6.56695 33.2746 7.68611 32.811 8.51127 31.9859C9.33643 31.1607 9.8 30.0416 9.8 28.8746V24.4746H5.4C4.23305 24.4746 3.11389 24.9382 2.28873 25.7633C1.46357 26.5885 1 27.7077 1 28.8746Z" stroke="#035371" stroke-width="1.3125" stroke-linecap="round" stroke-linejoin="round"/>
<path d="M12.7254 28.8746V40.6C12.7254 41.767 13.189 42.8861 14.0141 43.7113C14.8393 44.5364 15.9584 45 17.1254 45C18.2924 45 19.4115 44.5364 20.2367 43.7113C21.0618 42.8861 21.5254 41.767 21.5254 40.6V28.8746C21.5285 28.2979 21.4177 27.7263 21.1991 27.1926C20.9806 26.6589 20.6588 26.1737 20.2521 25.7648C19.8454 25.3559 19.3619 25.0314 18.8294 24.81C18.2969 24.5886 17.7259 24.4746 17.1492 24.4746C15.9822 24.4746 14.8631 24.9382 14.0379 25.7633C13.2128 26.5885 12.7492 27.7077 12.7492 28.8746M1 28.8746C1 30.0416 1.46357 31.1607 2.28873 31.9859C3.11389 32.811 4.23305 33.2746 5.4 33.2746C6.56695 33.2746 7.68611 32.811 8.51127 31.9859C9.33643 31.1607 9.8 30.0416 9.8 28.8746V24.4746H5.4C4.23305 24.4746 3.11389 24.9382 2.28873 25.7633C1.46357 26.5885 1 27.7077 1 28.8746Z" stroke="#035371" stroke-width="1.3125" stroke-linecap="round" stroke-linejoin="round"/>
<path d="M12.7254 28.8746V40.6C12.7254 41.767 13.189 42.8861 14.0141 43.7113C14.8393 44.5364 15.9584 45 17.1254 45C18.2924 45 19.4115 44.5364 20.2367 43.7113C21.0618 42.8861 21.5254 41.767 21.5254 40.6V28.8746C21.5285 28.2979 21.4177 27.7263 21.1991 27.1926C20.9806 26.6589 20.6588 26.1737 20.2521 25.7648C19.8454 25.3559 19.3619 25.0314 18.8294 24.81C18.2969 24.5886 17.7259 24.4746 17.1492 24.4746C15.9822 24.4746 14.8631 24.9382 14.0379 25.7633C13.2128 26.5885 12.7492 27.7077 12.7492 28.8746M1 28.8746C1 30.0416 1.46357 31.1607 2.28873 31.9859C3.11389 32.811 4.23305 33.2746 5.4 33.2746C6.56695 33.2746 7.68611 32.811 8.51127 31.9859C9.33643 31.1607 9.8 30.0416 9.8 28.8746V24.4746H5.4C4.23305 24.4746 3.11389 24.9382 2.28873 25.7633C1.46357 26.5885 1 27.7077 1 28.8746Z" stroke="#035371" stroke-width="1.3125" stroke-linecap="round" stroke-linejoin="round"/>
<path d="M12.7254 28.8746V40.6C12.7254 41.767 13.189 42.8861 14.0141 43.7113C14.8393 44.5364 15.9584 45 17.1254 45C18.2924 45 19.4115 44.5364 20.2367 43.7113C21.0618 42.8861 21.5254 41.767 21.5254 40.6V28.8746C21.5285 28.2979 21.4177 27.7263 21.1991 27.1926C20.9806 26.6589 20.6588 26.1737 20.2521 25.7648C19.8454 25.3559 19.3619 25.0314 18.8294 24.81C18.2969 24.5886 17.7259 24.4746 17.1492 24.4746C15.9822 24.4746 14.8631 24.9382 14.0379 25.7633C13.2128 26.5885 12.7492 27.7077 12.7492 28.8746M1 28.8746C1 30.0416 1.46357 31.1607 2.28873 31.9859C3.11389 32.811 4.23305 33.2746 5.4 33.2746C6.56695 33.2746 7.68611 32.811 8.51127 31.9859C9.33643 31.1607 9.8 30.0416 9.8 28.8746V24.4746H5.4C4.23305 24.4746 3.11389 24.9382 2.28873 25.7633C1.46357 26.5885 1 27.7077 1 28.8746Z" stroke="#035371" stroke-width="1.3125" stroke-linecap="round" stroke-linejoin="round"/>
<path d="M12.7254 28.8746V40.6C12.7254 41.767 13.189 42.8861 14.0141 43.7113C14.8393 44.5364 15.9584 45 17.1254 45C18.2924 45 19.4115 44.5364 20.2367 43.7113C21.0618 42.8861 21.5254 41.767 21.5254 40.6V28.8746C21.5285 28.2979 21.4177 27.7263 21.1991 27.1926C20.9806 26.6589 20.6588 26.1737 20.2521 25.7648C19.8454 25.3559 19.3619 25.0314 18.8294 24.81C18.2969 24.5886 17.7259 24.4746 17.1492 24.4746C15.9822 24.4746 14.8631 24.9382 14.0379 25.7633C13.2128 26.5885 12.7492 27.7077 12.7492 28.8746M1 28.8746C1 30.0416 1.46357 31.1607 2.28873 31.9859C3.11389 32.811 4.23305 33.2746 5.4 33.2746C6.56695 33.2746 7.68611 32.811 8.51127 31.9859C9.33643 31.1607 9.8 30.0416 9.8 28.8746V24.4746H5.4C4.23305 24.4746 3.11389 24.9382 2.28873 25.7633C1.46357 26.5885 1 27.7077 1 28.8746Z" stroke="#035371" stroke-width="1.3125" stroke-linecap="round" stroke-linejoin="round"/>
<path d="M12.7254 28.8746V40.6C12.7254 41.767 13.189 42.8861 14.0141 43.7113C14.8393 44.5364 15.9584 45 17.1254 45C18.2924 45 19.4115 44.5364 20.2367 43.7113C21.0618 42.8861 21.5254 41.767 21.5254 40.6V28.8746C21.5285 28.2979 21.4177 27.7263 21.1991 27.1926C20.9806 26.6589 20.6588 26.1737 20.2521 25.7648C19.8454 25.3559 19.3619 25.0314 18.8294 24.81C18.2969 24.5886 17.7259 24.4746 17.1492 24.4746C15.9822 24.4746 14.8631 24.9382 14.0379 25.7633C13.2128 26.5885 12.7492 27.7077 12.7492 28.8746M1 28.8746C1 30.0416 1.46357 31.1607 2.28873 31.9859C3.11389 32.811 4.23305 33.2746 5.4 33.2746C6.56695 33.2746 7.68611 32.811 8.51127 31.9859C9.33643 31.1607 9.8 30.0416 9.8 28.8746V24.4746H5.4C4.23305 24.4746 3.11389 24.9382 2.28873 25.7633C1.46357 26.5885 1 27.7077 1 28.8746Z" stroke="#035371" stroke-width="1.3125" stroke-linecap="round" stroke-linejoin="round"/>
<path d="M12.7254 28.8746V40.6C12.7254 41.767 13.189 42.8861 14.0141 43.7113C14.8393 44.5364 15.9584 45 17.1254 45C18.2924 45 19.4115 44.5364 20.2367 43.7113C21.0618 42.8861 21.5254 41.767 21.5254 40.6V28.8746C21.5285 28.2979 21.4177 27.7263 21.1991 27.1926C20.9806 26.6589 20.6588 26.1737 20.2521 25.7648C19.8454 25.3559 19.3619 25.0314 18.8294 24.81C18.2969 24.5886 17.7259 24.4746 17.1492 24.4746C15.9822 24.4746 14.8631 24.9382 14.0379 25.7633C13.2128 26.5885 12.7492 27.7077 12.7492 28.8746M1 28.8746C1 30.0416 1.46357 31.1607 2.28873 31.9859C3.11389 32.811 4.23305 33.2746 5.4 33.2746C6.56695 33.2746 7.68611 32.811 8.51127 31.9859C9.33643 31.1607 9.8 30.0416 9.8 28.8746V24.4746H5.4C4.23305 24.4746 3.11389 24.9382 2.28873 25.7633C1.46357 26.5885 1 27.7077 1 28.8746Z" stroke="#035371" stroke-width="1.3125" stroke-linecap="round" stroke-linejoin="round"/>
</svg>
