<svg width="35" height="35" viewBox="0 0 35 35" fill="none" xmlns="http://www.w3.org/2000/svg">
<path d="M2 17.5H33M17.5 10.6111V17.5M8.02778 17.5V24.3889M26.9722 17.5V24.3889M14.2278 10.6111H20.7722C21.7368 10.6111 22.2191 10.6111 22.5874 10.4234C22.9116 10.2583 23.1749 9.99481 23.3401 9.67076C23.5278 9.30236 23.5278 8.82009 23.5278 7.85556V4.75556C23.5278 3.79102 23.5278 3.30875 23.3401 2.94035C23.1749 2.6163 22.9116 2.35283 22.5874 2.1877C22.2191 2 21.7368 2 20.7722 2H14.2278C13.2632 2 12.781 2 12.4126 2.1877C12.0885 2.35283 11.8251 2.6163 11.6599 2.94035C11.4722 3.30875 11.4722 3.79102 11.4722 4.75556V7.85556C11.4722 8.82009 11.4722 9.30236 11.6599 9.67076C11.8251 9.99481 12.0885 10.2583 12.4126 10.4234C12.781 10.6111 13.2632 10.6111 14.2278 10.6111ZM23.7 33H30.2444C31.2091 33 31.6913 33 32.0597 32.8123C32.3838 32.6471 32.6471 32.3838 32.8123 32.0597C33 31.6913 33 31.2091 33 30.2444V27.1444C33 26.1798 33 25.6976 32.8123 25.3292C32.6471 25.0051 32.3838 24.7418 32.0597 24.5766C31.6913 24.3889 31.2091 24.3889 30.2444 24.3889H23.7C22.7354 24.3889 22.2532 24.3889 21.8848 24.5766C21.5607 24.7418 21.2973 25.0051 21.1322 25.3292C20.9444 25.6976 20.9444 26.1798 20.9444 27.1444V30.2444C20.9444 31.2091 20.9444 31.6913 21.1322 32.0597C21.2973 32.3838 21.5607 32.6471 21.8848 32.8123C22.2532 33 22.7354 33 23.7 33ZM4.75556 33H11.3C12.2645 33 12.7468 33 13.1152 32.8123C13.4393 32.6471 13.7027 32.3838 13.8679 32.0597C14.0556 31.6913 14.0556 31.2091 14.0556 30.2444V27.1444C14.0556 26.1798 14.0556 25.6976 13.8679 25.3292C13.7027 25.0051 13.4393 24.7418 13.1152 24.5766C12.7468 24.3889 12.2645 24.3889 11.3 24.3889H4.75556C3.79102 24.3889 3.30875 24.3889 2.94035 24.5766C2.6163 24.7418 2.35283 25.0051 2.1877 25.3292C2 25.6976 2 26.1798 2 27.1444V30.2444C2 31.2091 2 31.6913 2.1877 32.0597C2.35283 32.3838 2.6163 32.6471 2.94035 32.8123C3.30875 33 3.79102 33 4.75556 33Z" stroke="#6B6A6A" stroke-width="3" stroke-linecap="round" stroke-linejoin="round"/>
</svg>
