<svg width="29" height="29" viewBox="0 0 29 29" fill="none" xmlns="http://www.w3.org/2000/svg">
<path d="M5.75 12H8.25C10.75 12 12 10.75 12 8.25V5.75C12 3.25 10.75 2 8.25 2H5.75C3.25 2 2 3.25 2 5.75V8.25C2 10.75 3.25 12 5.75 12Z" stroke="#022430" stroke-width="2.5" stroke-miterlimit="10" stroke-linecap="round" stroke-linejoin="round"/>
<path d="M20.75 12H23.25C25.75 12 27 10.75 27 8.25V5.75C27 3.25 25.75 2 23.25 2H20.75C18.25 2 17 3.25 17 5.75V8.25C17 10.75 18.25 12 20.75 12Z" stroke="#022430" stroke-width="2.5" stroke-miterlimit="10" stroke-linecap="round" stroke-linejoin="round"/>
<path d="M20.75 27H23.25C25.75 27 27 25.75 27 23.25V20.75C27 18.25 25.75 17 23.25 17H20.75C18.25 17 17 18.25 17 20.75V23.25C17 25.75 18.25 27 20.75 27Z" stroke="#022430" stroke-width="2.5" stroke-miterlimit="10" stroke-linecap="round" stroke-linejoin="round"/>
<path d="M5.75 27H8.25C10.75 27 12 25.75 12 23.25V20.75C12 18.25 10.75 17 8.25 17H5.75C3.25 17 2 18.25 2 20.75V23.25C2 25.75 3.25 27 5.75 27Z" stroke="#022430" stroke-width="2.5" stroke-miterlimit="10" stroke-linecap="round" stroke-linejoin="round"/>
</svg>
