<svg width="20" height="25" viewBox="0 0 20 25" fill="none" xmlns="http://www.w3.org/2000/svg">
<path d="M2.11999 24.08C1.76637 24.08 1.42723 23.9395 1.17718 23.6895C0.927136 23.4394 0.786661 23.1003 0.786661 22.7467L0.586661 3.2C0.570606 2.80313 0.633172 2.40699 0.77076 2.03439C0.908349 1.66178 1.11824 1.32005 1.38838 1.02885C1.65851 0.737657 1.98354 0.502738 2.34479 0.33761C2.70604 0.172482 3.09637 0.0804021 3.49333 0.0666666L16.28 0C16.6775 0.00694243 17.0697 0.0921232 17.4343 0.250677C17.7988 0.40923 18.1286 0.63805 18.4047 0.924067C18.6808 1.21008 18.8979 1.54769 19.0435 1.91761C19.1891 2.28753 19.2604 2.68252 19.2533 3.08L19.44 22.6267C19.4423 22.8603 19.3831 23.0905 19.2685 23.294C19.1538 23.4976 18.9877 23.6675 18.7867 23.7867C18.584 23.9037 18.354 23.9653 18.12 23.9653C17.8859 23.9653 17.656 23.9037 17.4533 23.7867L9.85333 19.5733L2.79999 23.88C2.59113 23.9967 2.35876 24.065 2.11999 24.08ZM9.79999 16.68C10.0317 16.6804 10.26 16.7352 10.4667 16.84L16.7467 20.32L16.5867 3.05333C16.5867 2.78667 16.4133 2.6 16.3067 2.61333L3.50666 2.73333C3.39999 2.73333 3.25333 2.90667 3.25333 3.17333L3.41333 20.3733L9.11999 16.8667C9.32725 16.748 9.5612 16.6838 9.79999 16.68Z" fill="#035371"/>
</svg>
