<svg width="44" height="40" viewBox="0 0 44 40" fill="none" xmlns="http://www.w3.org/2000/svg">
<path d="M35.3023 13.8174H31.2092H35.3023ZM31.2092 13.8174H27.1162H31.2092ZM31.2092 13.8174V9.72437V13.8174ZM31.2092 13.8174V17.9104V13.8174Z" fill="#035371"/>
<path d="M35.3023 13.8174H31.2092M31.2092 13.8174H27.1162M31.2092 13.8174V9.72437M31.2092 13.8174V17.9104" stroke="#035371" stroke-width="3.75" stroke-linecap="round"/>
<path d="M14.8116 34.2695L14.8116 34.2695L14.638 34.4835C13.2689 33.3375 11.8189 32.0462 10.3985 30.6479L10.8067 30.2504C12.2093 31.6304 13.6421 32.9066 14.997 34.041L14.8116 34.2695ZM37.8237 25.9677C35.292 29.1967 32.1572 32.1437 29.3621 34.4835L29.003 34.0411C31.7787 31.717 34.8785 28.8006 37.3754 25.616C39.8595 22.4477 41.7221 19.0453 42.1069 15.717H42.6803C42.2944 19.2231 40.3458 22.7509 37.8237 25.9677L38.743 26.6885L37.8237 25.9677ZM27.065 35.6204L27.2474 35.8451L27.2474 35.8451L27.4253 36.0644C25.7933 37.3714 24.6132 38.2116 23.25 38.5236V38.3754V37.9402C23.7445 37.8135 24.2265 37.6033 24.7461 37.2971C25.4001 36.9117 26.1403 36.357 27.065 35.6204ZM20.75 37.9402V38.3754V38.5236C19.3868 38.2116 18.2066 37.3714 16.5747 36.0644L16.935 35.6204C17.8598 36.357 18.5999 36.9117 19.2539 37.2971C19.7735 37.6033 20.2555 37.8135 20.75 37.9402ZM42.7133 13.217H42.1426C41.7998 7.60668 39.1456 3.82272 35.5821 2.42732C32.3175 1.14897 28.1932 1.83779 24.2206 5.10366L24.0341 4.9042C23.9662 4.83157 23.8981 4.75956 23.8298 4.68816C27.931 1.30496 32.2747 0.520353 35.7898 1.89676L36.245 0.734341L35.7898 1.89677C39.623 3.39768 42.3684 7.42858 42.7133 13.217ZM3.317 21.6672C2.26743 19.7201 1.5397 17.7159 1.31971 15.7171H1.89311C2.1102 17.5949 2.79795 19.498 3.80512 21.372L3.317 21.6672ZM1.2867 13.2171C1.63164 7.42861 4.37708 3.39769 8.2102 1.89677L7.79468 0.835602L8.2102 1.89677C11.7253 0.520351 16.069 1.30496 20.1702 4.68816C20.1019 4.75956 20.0338 4.83157 19.9659 4.9042L19.7794 5.10366C15.8068 1.8378 11.6826 1.14899 8.41795 2.42731L8.87372 3.59126L8.41795 2.42731C4.85427 3.82274 2.20018 7.60674 1.85735 13.2171H1.2867Z" fill="#035371" stroke="#035371" stroke-width="2.5"/>
</svg>
