<svg width="35" height="45" viewBox="0 0 35 45" fill="none" xmlns="http://www.w3.org/2000/svg">
<path d="M4.89202 7.60645L4.89132 7.60684C4.89156 7.6067 4.89179 7.60657 4.89202 7.60645ZM4.89202 7.60645C4.89227 7.6063 4.89251 7.60617 4.89274 7.60605M4.89202 7.60645L4.89274 7.60605M4.89274 7.60605C4.89384 7.60544 4.89451 7.60511 4.89393 7.60541L4.89274 7.60605ZM15.7103 15.9217L15.7103 15.9217C18.2924 14.3985 19.6821 11.3916 19.5428 7.69266C19.4661 5.65555 18.6587 4.09022 17.4795 2.97688C16.2396 1.79286 14.5294 1.07246 12.6055 0.930103L12.6055 0.930103C12.5916 0.929077 12.5737 0.927602 12.5525 0.925848C12.4024 0.913467 12.0844 0.887221 11.8182 0.907438C8.53205 1.15319 5.02572 3.31955 4.84405 7.65995C4.84304 7.66252 4.84212 7.6652 4.84128 7.668C4.83852 7.67729 4.83708 7.68702 4.83708 7.69692V7.69824C4.73718 11.3933 6.09296 14.3987 8.67436 15.9216C9.75882 16.5614 10.9772 16.8811 12.193 16.8811C13.4086 16.8811 14.6259 16.5612 15.7103 15.9217ZM14.6152 18.9948L14.5935 19.0925L14.6152 18.9948C12.8404 18.6014 10.9109 18.6547 9.18077 19.1452C5.97965 20.0527 3.81871 22.2633 3.26802 25.215L0.918373 37.8112C0.858937 38.1298 0.945324 38.4582 1.15389 38.7071C1.36242 38.956 1.67141 39.0998 1.99708 39.0998L13.1375 39.0996C13.7428 39.0996 14.2346 38.6123 14.2346 38.0096C14.2346 37.4069 13.7426 36.9196 13.1375 36.9196L3.31621 36.9198L5.42563 25.6124C5.70253 24.1282 6.57299 22.8979 7.89952 22.0648L9.68859 24.2879C10.0669 24.7581 10.7569 24.8343 11.23 24.459C11.7036 24.0833 11.7809 23.397 11.4023 22.9265L9.99932 21.1832C11.4855 20.8032 13.0467 20.8248 14.4423 21.1923L13.047 22.9266C12.6683 23.3972 12.7458 24.0835 13.2193 24.4591C13.6925 24.8344 14.3825 24.7581 14.7608 24.2879L16.5306 22.0881C16.9684 22.3662 17.362 22.6901 17.6985 23.0563C18.1068 23.5008 18.8002 23.5324 19.2478 23.1271C19.6958 22.7214 19.7278 22.0317 19.3191 21.5868C18.1487 20.3124 16.5209 19.4173 14.6152 18.9948ZM25.0906 39.5774L25.1337 39.4872L25.0906 39.5774C26.1939 40.1041 27.5918 40.3924 29.0272 40.3924C30.4628 40.3924 31.8608 40.1041 32.9642 39.5774C33.5102 39.3168 33.7407 38.6654 33.4776 38.1223C33.215 37.5797 32.5594 37.3519 32.0139 37.6124C31.2067 37.9978 30.146 38.2123 29.0272 38.2123C27.9086 38.2123 26.8482 37.9978 26.041 37.6124C25.4955 37.352 24.84 37.5796 24.5772 38.1223C24.3143 38.6653 24.5447 39.3167 25.0906 39.5774ZM26.041 41.3201L26.0018 41.4021L26.041 41.3201C25.4955 41.0597 24.84 41.2873 24.5772 41.83C24.3143 42.373 24.5447 43.0244 25.0906 43.2851C26.1938 43.8118 27.5917 44.1 29.0272 44.1C30.4629 44.1 31.861 43.8118 32.9642 43.2851C33.5102 43.0245 33.7407 42.3731 33.4776 41.83C33.2149 41.2872 32.5593 41.0597 32.0139 41.3201C31.2068 41.7054 30.1462 41.9199 29.0272 41.9199C27.9084 41.9199 26.8479 41.7055 26.041 41.3201ZM7.08026 7.28634C7.42985 4.50874 9.82703 3.16194 12.196 3.06577C13.2042 3.10707 14.3485 3.39467 15.3031 4.02474C15.7426 4.31661 16.1344 4.67608 16.4547 5.10503C13.723 6.30682 10.3569 7.09099 7.08026 7.28634ZM17.2882 7.12195C17.3211 7.33067 17.3423 7.548 17.3508 7.77413C17.4602 10.6773 16.4444 12.9541 14.5915 14.0471C13.1137 14.9188 11.2777 14.9188 9.79995 14.0471C8.32473 13.1769 7.38095 11.5575 7.11197 9.46807C10.6485 9.26759 14.3013 8.42445 17.2882 7.12195ZM22.1884 42.5163C22.7937 42.5163 23.2855 42.029 23.2855 41.4263C23.2855 40.8236 22.7937 40.3363 22.1884 40.3363H18.8963V28.0622H27.9688V28.182C27.9688 28.7847 28.4607 29.272 29.0659 29.272C29.6711 29.272 30.1629 28.7847 30.1629 28.182V26.936C30.1629 26.3238 29.6225 25.8822 29.0273 25.8822H17.7932C17.1922 25.8822 16.7022 26.3293 16.7022 26.936V41.4115C16.7022 42.0115 17.1853 42.5163 17.7932 42.5163H22.1884ZM29.0273 36.6848C30.4585 36.6848 31.7204 36.3627 32.628 35.8207C33.5352 35.2789 34.1 34.5088 34.1 33.6152C34.1 32.7216 33.5352 31.9514 32.628 31.4096C31.7204 30.8675 30.4585 30.5454 29.0273 30.5454C27.5963 30.5454 26.3345 30.8675 25.4269 31.4096C24.5198 31.9514 23.955 32.7216 23.955 33.6152C23.955 34.5088 24.5197 35.2789 25.4269 35.8207C26.3345 36.3627 27.5963 36.6848 29.0273 36.6848ZM26.708 33.1898C27.2962 32.8968 28.1415 32.7254 29.0273 32.7254C29.9132 32.7254 30.7586 32.8968 31.3469 33.1898C31.5927 33.3121 31.7365 33.4261 31.8173 33.5093C31.8577 33.5509 31.8819 33.5844 31.8953 33.6069C31.8971 33.61 31.8987 33.6127 31.9001 33.6152C31.8987 33.6177 31.8972 33.6205 31.8954 33.6235C31.882 33.646 31.8578 33.6795 31.8173 33.7211C31.7366 33.8043 31.5928 33.9181 31.347 34.0405C30.7586 34.3334 29.9132 34.5048 29.0273 34.5048C28.1415 34.5048 27.2962 34.3334 26.708 34.0405C26.4623 33.9182 26.3186 33.8043 26.2378 33.7211C26.1973 33.6794 26.1731 33.646 26.1598 33.6235C26.158 33.6205 26.1564 33.6177 26.155 33.6152C26.1564 33.6127 26.158 33.61 26.1598 33.607C26.1732 33.5844 26.1973 33.551 26.2378 33.5093C26.3185 33.4261 26.4623 33.3121 26.708 33.1898L26.6634 33.1002L26.708 33.1898Z" fill="#035371" stroke="#035371" stroke-width="0.2"/>
</svg>
