<svg width="45" height="45" viewBox="0 0 45 45" fill="none" xmlns="http://www.w3.org/2000/svg">
<path d="M43.2051 29.6382L43.2052 29.6384C43.1121 29.6595 43.0136 29.6723 42.91 29.6723H42.9093C42.2705 29.6705 41.7374 29.2232 41.6022 28.6167L41.6003 28.6082L41.6005 28.6082L41.5883 28.5433C40.5553 24.0501 36.5524 20.6989 31.7628 20.6802L43.2051 29.6382ZM43.2051 29.6382C43.6926 29.5258 44.0762 29.1544 44.2041 28.6776L44.4116 28.8855L44.2221 28.0425C42.9213 22.2563 37.8383 17.9952 31.7618 17.9952C31.1576 17.9952 30.5632 18.038 29.9813 18.1182C28.7962 15.0421 25.8667 12.8949 22.4346 12.8949C18.99 12.8949 16.0505 15.0576 14.8898 18.1004C14.3869 18.0326 13.8215 17.9937 13.2469 17.9937H13.2469H13.2469H13.2468H13.2468H13.2468H13.2468H13.2468H13.2468H13.2467H13.2467H13.2467H13.2467H13.2467H13.2466H13.2466H13.2466H13.2466H13.2466H13.2466H13.2465H13.2465H13.2465H13.2465H13.2465H13.2465H13.2464H13.2464H13.2464H13.2464H13.2464H13.2463H13.2463H13.2463H13.2463H13.2463H13.2463H13.2462H13.2462H13.2462H13.2462H13.2462H13.2461H13.2461H13.2461H13.2461H13.2461H13.2461H13.246H13.246H13.246H13.246H13.246H13.2459H13.2459H13.2459H13.2459H13.2459H13.2459H13.2458H13.2458H13.2458H13.2458H13.2458H13.2457H13.2457H13.2457H13.2457H13.2457H13.2456H13.2456H13.2456H13.2456H13.2456H13.2455H13.2455H13.2455H13.2455H13.2455H13.2455H13.2454H13.2454H13.2454H13.2454H13.2454H13.2453H13.2453H13.2453H13.2453H13.2453H13.2452H13.2452H13.2452H13.2452H13.2452H13.2451H13.2451H13.2451H13.2451H13.2451H13.245H13.245H13.245H13.245H13.245H13.2449H13.2449H13.2449H13.2449H13.2449H13.2448H13.2448H13.2448H13.2448H13.2448H13.2447H13.2447H13.2447H13.2447H13.2447H13.2446H13.2446H13.2446H13.2446H13.2446H13.2445H13.2445H13.2445H13.2445H13.2445H13.2444H13.2444H13.2444H13.2444H13.2444H13.2443H13.2443H13.2443H13.2443H13.2443H13.2442H13.2442H13.2442H13.2442H13.2442H13.2441H13.2441H13.2441H13.2441H13.2441H13.244H13.244H13.244H13.244H13.244H13.2439H13.2439H13.2439H13.2439H13.2438H13.2438H13.2438H13.2438H13.2438H13.2437H13.2437H13.2437H13.2437H13.2437H13.2436H13.2436H13.2436H13.2436H13.2436H13.2435H13.2435H13.2435H13.2435H13.2435H13.2434H13.2434H13.2434H13.2434H13.2434H13.2433H13.2433H13.2433H13.2433H13.2432H13.2432H13.2432H13.2432H13.2432H13.2431H13.2431H13.2431H13.2431H13.2431H13.243H13.243H13.243H13.243H13.243H13.2429H13.2429H13.2429H13.2429H13.2428H13.2428H13.2428H13.2428H13.2428H13.2427H13.2427H13.2427H13.2427H13.2427H13.2426H13.2426H13.2426H13.2426H13.2425H13.2425H13.2425H13.2425H13.2425H13.2424H13.2424H13.2424H13.2424H13.2424H13.2423H13.2423H13.2423H13.2423H13.2423H13.2422H13.2422H13.2422H13.2422H13.2421H13.2421H13.2421H13.2421H13.2421H13.242H13.242H13.242H13.242H13.242H13.2419H13.2419H13.2419H13.2419H13.2418H13.2418H13.2418H13.2418H13.2418H13.2417H13.2417H13.2417H13.2417H13.2417H13.2416H13.2416H13.2416H13.2416H13.2415H13.2415H13.2415H13.2415H13.2415H13.2414H13.2414H13.2414H13.2414H13.2414H13.2413H13.2413H13.2413H13.2413H13.2413H13.2412H13.2412H13.2412H13.2412H13.2411H13.2411H13.2411H13.2411H13.2411H13.241H13.241H13.241H13.241H13.241H13.2409H13.2409H13.2409H13.2409H13.2408H13.2408H13.2408H13.2408H13.2408H13.2407H13.2407H13.2407H13.2407H13.2407H13.2406H13.2406H13.2406H13.2406H13.2406H13.2405H13.2405H13.2405H13.2405H13.2404H13.2404H13.2404H13.2404H13.2404H13.2403H13.2403H13.2403H13.2403H13.2403H13.2402H13.2402H13.2402H13.2402H13.2402H13.2401H13.2401H13.2401H13.2401H13.24H13.24H13.24H13.24H13.24H13.2399H13.2399H13.2399H13.2399H13.2399H13.2398H13.2398H13.2398H13.2398H13.2398H13.2397H13.2397H13.2397H13.2397H13.2397H13.2396H13.2396H13.2396H13.2396H13.2396H13.2395H13.2395H13.2395H13.2395H13.2395H13.2394H13.2394H13.2394H13.2394H13.2393H13.2393H13.2393H13.2393H13.2393H13.2392H13.2392H13.2392H13.2392H13.2392H13.2391H13.2391H13.2391H13.2391H13.2391H13.239H13.239H13.239H13.239H13.239H13.2389H13.2389H13.2389H13.2389H13.2389H13.2388H13.2388H13.2388H13.2388H13.2388H13.2387H13.2387H13.2387H13.2387H13.2387H13.2386H13.2386H13.2386H13.2386H13.2386H13.2385H13.2385H13.2385H13.2385H13.2385H13.2384H13.2384H13.2384H13.2384H13.2384H13.2383H13.2383H13.2383H13.2383H13.2383H13.2383H13.2382H13.2382H13.2382H13.2382H13.2382H13.2381H13.2381H13.2381H13.2381H13.2381H13.238H13.238H13.238H13.238H13.238H13.2379H13.2379H13.2379H13.2379H13.2379H13.2379H13.2378H13.2378H13.2378H13.2378H13.2378H13.2377H13.2377H13.2377H13.2377H13.2377H13.2376H13.2376H13.2376H13.2376H13.2376H13.2376H13.2375H13.2375H13.2375H13.2375H13.2375H13.2374H13.2374H13.2374H13.2374H13.2374H13.2374H13.2373H13.2373H13.2373H13.2373H13.2373H13.2372H13.2372H13.2372H13.2372H13.2372H13.2372H13.2371H13.2371H13.2371H13.2371H13.2371H13.237H13.237H13.237H13.237H13.237H13.237H13.2369H13.2369H13.2369H13.2369H13.2369H13.2369H13.2368H13.2368H13.2368H13.2368H13.2368H13.2368H13.2367L13.2367 17.9937L13.2356 17.9937C7.16968 18.0205 2.10269 22.2668 0.797028 27.9554L0.796845 27.9553L0.795045 27.9648L0.779877 28.0451C0.760013 28.1339 0.75 28.2311 0.75 28.3291C0.75 29.0699 1.34953 29.6723 2.08997 29.6723C2.72889 29.6723 3.26248 29.2236 3.39632 28.624L3.39638 28.624L3.3975 28.6185L3.39825 28.6147C4.44547 24.0513 8.44961 20.7003 13.2358 20.6802C13.236 20.6802 13.2362 20.6802 13.2363 20.6802L13.2382 20.6802C13.6108 20.6802 13.978 20.7012 14.3386 20.7418C14.3383 20.7442 14.338 20.7465 14.3377 20.7489C14.3258 20.8357 14.3136 20.9354 14.3136 21.0424L14.3136 21.0429C14.3226 25.534 17.955 29.1723 22.4361 29.1723C26.9171 29.1723 30.5496 25.534 30.5571 21.0428V21.0424V21.0409C30.5571 20.9364 30.5451 20.8382 30.5333 20.7527C30.9055 20.7057 31.3225 20.6802 31.7473 20.6802H31.7473H31.7474H31.7474H31.7474H31.7475H31.7475H31.7475H31.7476H31.7476H31.7476H31.7477H31.7477H31.7477H31.7478H31.7478H31.7478H31.7479H31.7479H31.7479H31.748H31.748H31.748H31.7481H31.7481H31.7481H31.7482H31.7482H31.7482H31.7483H31.7483H31.7483H31.7484H31.7484H31.7484H31.7485H31.7485H31.7485H31.7486H31.7486H31.7486H31.7487H31.7487H31.7487H31.7488H31.7488H31.7488H31.7489H31.7489H31.7489H31.749H31.749H31.749H31.7491H31.7491H31.7491H31.7492H31.7492H31.7492H31.7493H31.7493H31.7493H31.7493H31.7494H31.7494H31.7494H31.7495H31.7495H31.7495H31.7496H31.7496H31.7496H31.7497H31.7497H31.7497H31.7498H31.7498H31.7498H31.7499H31.7499H31.7499H31.75H31.75H31.75H31.7501H31.7501H31.7501H31.7501H31.7502H31.7502H31.7502H31.7503H31.7503H31.7503H31.7504H31.7504H31.7504H31.7505H31.7505H31.7505H31.7506H31.7506H31.7506H31.7507H31.7507H31.7507H31.7507H31.7508H31.7508H31.7508H31.7509H31.7509H31.7509H31.751H31.751H31.751H31.7511H31.7511H31.7511H31.7512H31.7512H31.7512H31.7512H31.7513H31.7513H31.7513H31.7514H31.7514H31.7514H31.7515H31.7515H31.7515H31.7516H31.7516H31.7516H31.7516H31.7517H31.7517H31.7517H31.7518H31.7518H31.7518H31.7519H31.7519H31.7519H31.752H31.752H31.752H31.752H31.7521H31.7521H31.7521H31.7522H31.7522H31.7522H31.7523H31.7523H31.7523H31.7523H31.7524H31.7524H31.7524H31.7525H31.7525H31.7525H31.7526H31.7526H31.7526H31.7527H31.7527H31.7527H31.7527H31.7528H31.7528H31.7528H31.7529H31.7529H31.7529H31.753H31.753H31.753H31.753H31.7531H31.7531H31.7531H31.7532H31.7532H31.7532H31.7533H31.7533H31.7533H31.7533H31.7534H31.7534H31.7534H31.7535H31.7535H31.7535H31.7536H31.7536H31.7536H31.7536H31.7537H31.7537H31.7537H31.7538H31.7538H31.7538H31.7539H31.7539H31.7539H31.7539H31.754H31.754H31.754H31.7541H31.7541H31.7541H31.7542H31.7542H31.7542H31.7542H31.7543H31.7543H31.7543H31.7544H31.7544H31.7544H31.7545H31.7545H31.7545H31.7545H31.7546H31.7546H31.7546H31.7547H31.7547H31.7547H31.7548H31.7548H31.7548H31.7548H31.7549H31.7549H31.7549H31.755H31.755H31.755H31.7551H31.7551H31.7551H31.7551H31.7552H31.7552H31.7552H31.7553H31.7553H31.7553H31.7553H31.7554H31.7554H31.7554H31.7555H31.7555H31.7555H31.7556H31.7556H31.7556H31.7556H31.7557H31.7557H31.7557H31.7558H31.7558H31.7558H31.7559H31.7559H31.7559H31.7559H31.756H31.756H31.756H31.7561H31.7561H31.7561H31.7562H31.7562H31.7562H31.7562H31.7563H31.7563H31.7563H31.7564H31.7564H31.7564H31.7565H31.7565H31.7565H31.7565H31.7566H31.7566H31.7566H31.7567H31.7567H31.7567H31.7568H31.7568H31.7568H31.7568H31.7569H31.7569H31.7569H31.757H31.757H31.757H31.7571H31.7571H31.7571H31.7571H31.7572H31.7572H31.7572H31.7573H31.7573H31.7573H31.7574H31.7574H31.7574H31.7574H31.7575H31.7575H31.7575H31.7576H31.7576H31.7576H31.7577H31.7577H31.7577H31.7577H31.7578H31.7578H31.7578H31.7579H31.7579H31.7579H31.758H31.758H31.758H31.758H31.7581H31.7581H31.7581H31.7582H31.7582H31.7582H31.7583H31.7583H31.7583H31.7584H31.7584H31.7584H31.7584H31.7585H31.7585H31.7585H31.7586H31.7586H31.7586H31.7587H31.7587H31.7587H31.7587H31.7588H31.7588H31.7588H31.7589H31.7589H31.7589H31.759H31.759H31.759H31.7591H31.7591H31.7591H31.7591H31.7592H31.7592H31.7592H31.7593H31.7593H31.7593H31.7594H31.7594H31.7594H31.7595H31.7595H31.7595H31.7596H31.7596H31.7596H31.7596H31.7597H31.7597H31.7597H31.7598H31.7598H31.7598H31.7599H31.7599H31.7599H31.76H31.76H31.76H31.7601H31.7601H31.7601H31.7601H31.7602H31.7602H31.7602H31.7603H31.7603H31.7603H31.7604H31.7604H31.7604H31.7605H31.7605H31.7605H31.7606H31.7606H31.7606H31.7607H31.7607H31.7607H31.7607H31.7608H31.7608H31.7608H31.7609H31.7609H31.7609H31.761H31.761H31.761H31.7611H31.7611H31.7611H31.7612H31.7612H31.7612H31.7613H31.7613H31.7613H31.7614H31.7614H31.7614H31.7615H31.7615H31.7615H31.7616H31.7616H31.7616H31.7617H31.7617H31.7617H31.7617H31.7618H31.7618H31.7618H31.7619H31.7619H31.7619H31.762H31.762H31.762H31.7621H31.7621H31.7621H31.7622H31.7622H31.7622H31.7623H31.7623L43.2051 29.6382ZM35.9867 44.2161L35.9866 44.2159C36.5882 44.0773 37.0315 43.5442 37.0315 42.9053C37.0315 42.8046 37.0209 42.7059 36.9992 42.6098L36.999 42.6098C35.4529 35.8657 29.5293 30.903 22.4444 30.8719H22.4433H22.4404H22.3813L22.3776 30.8737C15.3132 30.9305 9.4172 35.8863 7.89779 42.5186L7.89762 42.5186L7.8959 42.5276L7.8778 42.6226C7.8579 42.7115 7.84788 42.8088 7.84788 42.9068C7.84788 43.6476 8.44741 44.25 9.18785 44.25C9.82677 44.25 10.3604 43.8014 10.4942 43.2018L10.4943 43.2018L10.4954 43.1962L10.4962 43.1919C11.7441 37.6407 16.6184 33.5598 22.439 33.5598C28.2602 33.5598 33.1335 37.6413 34.3655 43.108L34.3808 43.1872L34.3807 43.1873L34.3823 43.1944C34.5173 43.8002 35.0485 44.25 35.6901 44.25H35.6915C35.7951 44.25 35.8936 44.2372 35.9867 44.2161ZM12.5025 14.8817H12.5028C16.3939 14.8817 19.5484 11.7183 19.5484 7.81587C19.5484 3.91345 16.3954 0.75 12.5028 0.75C8.61167 0.75 5.45721 3.91341 5.45721 7.81587V7.81615C5.46173 11.7155 8.61451 14.8772 12.5025 14.8817ZM32.5013 14.8817H32.5016H32.503C36.3941 14.8817 39.5486 11.7183 39.5486 7.81587C39.5486 3.91345 36.3956 0.75 32.503 0.75C28.6119 0.75 25.4574 3.91341 25.4574 7.81587V7.81615C25.4619 11.7154 28.6132 14.8772 32.5013 14.8817ZM12.5029 3.43644C14.9131 3.43648 16.8685 5.39658 16.8685 7.81587C16.8685 10.2352 14.9131 12.1953 12.5028 12.1953C10.0926 12.1953 8.1373 10.2353 8.13715 7.81615C8.1399 5.3982 10.0953 3.43931 12.5029 3.43644ZM32.5031 3.43644C34.9133 3.43648 36.8687 5.39658 36.8687 7.81587C36.8687 10.2352 34.9133 12.1953 32.503 12.1953C30.0928 12.1953 28.1375 10.2353 28.1374 7.81615C28.1401 5.39815 30.0941 3.43931 32.5031 3.43644ZM22.4372 26.5004H22.4372H22.4371H22.4371H22.4371H22.4371H22.4371H22.4371H22.437H22.437H22.437H22.437H22.437H22.437H22.4369H22.4369H22.4369H22.4369H22.4369H22.4369H22.4368H22.4368H22.4368H22.4368H22.4368H22.4368H22.4367H22.4367H22.4367H22.4367H22.4367H22.4367H22.4366H22.4366H22.4366H22.4366H22.4366H22.4365H22.4365H22.4365H22.4365H22.4365H22.4364H22.4364H22.4364H22.4364H22.4364H22.4363H22.4363H22.4363H22.4363H22.4363H22.4363H22.4363H22.4362H22.4362H22.4362H22.4362H22.4362H22.4362H22.4361H22.4361H22.4361H22.4361H22.4361H22.4361C19.4313 26.5004 16.9935 24.0578 16.9935 21.0409C16.9935 18.024 19.4313 15.5814 22.4361 15.5814C25.4408 15.5814 27.8786 18.0254 27.8786 21.0409V21.0409V21.0409V21.041V21.041V21.041V21.041V21.041V21.041V21.0411V21.0411V21.0411V21.0411V21.0411V21.0411V21.0411V21.0412V21.0412V21.0412V21.0412V21.0412V21.0412V21.0413V21.0413V21.0413V21.0413V21.0413V21.0413V21.0414V21.0414V21.0414V21.0414V21.0414V21.0414V21.0415V21.0415V21.0415V21.0415V21.0415V21.0415V21.0416V21.0416V21.0416V21.0416V21.0416V21.0416V21.0417V21.0417V21.0417V21.0417V21.0417V21.0417V21.0418V21.0418V21.0418V21.0418V21.0418V21.0419V21.0419V21.0419V21.0419V21.0419V21.042V21.042V21.042V21.042C27.8744 24.0563 25.4407 26.4963 22.4372 26.5004Z" fill="white" stroke="white" stroke-width="0.5"/>
</svg>
