<svg width="36" height="36" viewBox="0 0 36 36" fill="none" xmlns="http://www.w3.org/2000/svg">
<path d="M18 8.40002C12.6981 8.40002 8.40002 12.6981 8.40002 18C8.40002 20.6511 9.47454 23.0511 11.2118 24.7882M24.7882 24.7882C26.5255 23.0511 27.6 20.6511 27.6 18C27.6 16.0373 27.0109 14.212 26 12.6915" stroke="#6B6A6A" stroke-width="2.75" stroke-linecap="round"/>
<path d="M18 2C26.8365 2 34 9.16344 34 18C34 22.4182 32.2091 26.4182 29.3138 29.3138M6.68629 29.3138C3.79086 26.4182 2 22.4182 2 18C2 12.0777 5.21758 6.90699 10 4.14051" stroke="#6B6A6A" stroke-width="2.75" stroke-linecap="round"/>
<path d="M18 21.2002C19.7674 21.2002 21.2 19.7675 21.2 18.0002C21.2 16.2329 19.7674 14.8002 18 14.8002C16.2327 14.8002 14.8 16.2329 14.8 18.0002C14.8 19.7675 16.2327 21.2002 18 21.2002Z" stroke="#6B6A6A" stroke-width="2.75"/>
<path d="M14.6198 26.5506C16.1547 25.1493 16.9222 24.4487 17.8699 24.4033C17.9566 24.3989 18.0434 24.3989 18.1301 24.4033C19.0778 24.4487 19.8453 25.1493 21.3802 26.5506C24.7202 29.5996 26.3902 31.1241 25.9227 32.4393C25.8826 32.5524 25.8326 32.6623 25.7734 32.7682C25.0851 34.0001 22.7235 34.0001 18 34.0001C13.2765 34.0001 10.9148 34.0001 10.2266 32.7682C10.1674 32.6623 10.1175 32.5524 10.0773 32.4393C9.6098 31.1241 11.2798 29.5996 14.6198 26.5506Z" stroke="#6B6A6A" stroke-width="2.75"/>
</svg>
