<svg width="36" height="35" viewBox="0 0 36 35" fill="none" xmlns="http://www.w3.org/2000/svg">
<path d="M3.77778 18.4118H2V11.1176C2 9.10343 3.59188 7.47059 5.55556 7.47059H12.6667M3.77778 18.4118V29.3529C3.77778 31.3672 5.36965 33 7.33333 33H28.6667C30.6304 33 32.2222 31.3672 32.2222 29.3529V18.4118M3.77778 18.4118H14.4444M12.6667 7.47059V5.64706C12.6667 3.63284 14.2585 2 16.2222 2H19.7778C21.7415 2 23.3333 3.63284 23.3333 5.64706V7.47059M12.6667 7.47059H23.3333M32.2222 18.4118H34V11.1176C34 9.10343 32.4082 7.47059 30.4444 7.47059H23.3333M32.2222 18.4118H21.5556M14.4444 18.4118V14.7647H21.5556V18.4118M14.4444 18.4118V22.0588H21.5556V18.4118" stroke="#6B6A6A" stroke-width="3" stroke-linecap="round" stroke-linejoin="round"/>
</svg>
