<svg width="46" height="39" viewBox="0 0 46 39" fill="none" xmlns="http://www.w3.org/2000/svg">
<path d="M7.23384 28.3065C9.43545 28.3065 11.2439 26.4981 11.2439 24.2965C11.2439 22.0948 9.43545 20.2864 7.23384 20.2864C5.03222 20.2864 3.22375 22.0948 3.22375 24.2965C3.22375 26.4981 5.03222 28.3065 7.23384 28.3065ZM7.23384 21.859C8.57053 21.859 9.67134 22.9598 9.67134 24.2965C9.67134 25.6331 8.57053 26.734 7.23384 26.734C5.89714 26.734 4.79634 25.6331 4.79634 24.2965C4.79634 22.9598 5.89714 21.859 7.23384 21.859Z" fill="white"/>
<path d="M8.88508 28.8568H5.58266C2.51613 28.8568 0 31.3729 0 34.4395V39H14.4677V34.4395C14.4677 31.3729 11.9516 28.8568 8.88508 28.8568ZM12.8952 37.4274H1.57258V34.4395C1.57258 33.3387 2.04435 32.3165 2.75202 31.6088C3.45968 30.9012 4.48186 30.4294 5.58266 30.4294H8.88508C9.98589 30.4294 11.0081 30.9012 11.7157 31.6088C12.4234 32.3165 12.8952 33.3387 12.8952 34.4395V37.4274Z" fill="white"/>
<path d="M34.3608 24.2965C34.3608 26.4981 36.1693 28.3065 38.3709 28.3065C40.5725 28.3065 42.381 26.4981 42.381 24.2965C42.381 22.0948 40.5725 20.2864 38.3709 20.2864C36.1693 20.2864 34.3608 22.0948 34.3608 24.2965ZM38.3709 21.859C39.7076 21.859 40.8084 22.9598 40.8084 24.2965C40.8084 25.6331 39.7076 26.734 38.3709 26.734C37.0342 26.734 35.9334 25.6331 35.9334 24.2965C35.9334 22.9598 37.0342 21.859 38.3709 21.859Z" fill="white"/>
<path d="M40.0222 28.8568H36.7197C33.6532 28.8568 31.1371 31.3729 31.1371 34.4395V39H45.6048V34.4395C45.6048 31.3729 43.0887 28.8568 40.0222 28.8568ZM44.0322 37.4274H32.7097V34.4395C32.7097 33.3387 33.1814 32.3165 33.8891 31.6088C34.5968 30.9012 35.6189 30.4294 36.7197 30.4294H40.0222C41.123 30.4294 42.1452 30.9012 42.8528 31.6088C43.5605 32.3165 44.0322 33.3387 44.0322 34.4395V37.4274Z" fill="white"/>
<path d="M18.7924 24.2965C18.7924 26.4981 20.6008 28.3065 22.8024 28.3065C25.0041 28.3065 26.8125 26.4981 26.8125 24.2965C26.8125 22.0948 25.0041 20.2864 22.8024 20.2864C20.6008 20.2864 18.7924 22.0948 18.7924 24.2965ZM22.8024 21.859C24.1391 21.859 25.2399 22.9598 25.2399 24.2965C25.2399 25.6331 24.1391 26.734 22.8024 26.734C21.4657 26.734 20.3649 25.6331 20.3649 24.2965C20.3649 22.9598 21.4657 21.859 22.8024 21.859Z" fill="white"/>
<path d="M24.4537 28.8568H21.1513C18.0847 28.8568 15.5686 31.3729 15.5686 34.4395V39H30.0363V34.4395C30.0363 31.3729 27.5202 28.8568 24.4537 28.8568ZM28.4638 37.4274H17.1412V34.4395C17.1412 33.3387 17.613 32.3165 18.3206 31.6088C19.0283 30.9012 20.0505 30.4294 21.1513 30.4294H24.4537C25.5545 30.4294 26.5767 30.9012 27.2843 31.6088C27.992 32.3165 28.4638 33.3387 28.4638 34.4395V37.4274Z" fill="white"/>
<path d="M15.0181 8.02016C17.2198 8.02016 19.0282 6.21169 19.0282 4.01008C19.0282 1.80847 17.2198 0 15.0181 0C12.8165 0 11.0081 1.80847 11.0081 4.01008C11.0081 6.21169 12.8165 8.02016 15.0181 8.02016ZM15.0181 1.57258C16.3548 1.57258 17.4556 2.67339 17.4556 4.01008C17.4556 5.34677 16.3548 6.44758 15.0181 6.44758C13.6814 6.44758 12.5806 5.34677 12.5806 4.01008C12.5806 2.59476 13.6814 1.57258 15.0181 1.57258Z" fill="white"/>
<path d="M22.252 14.1532C22.252 11.0867 19.7359 8.57056 16.6694 8.57056H13.367C10.3004 8.57056 7.7843 11.0867 7.7843 14.1532V18.7137H22.252V14.1532ZM20.6795 17.1411H9.35688V14.1532C9.35688 13.0524 9.82866 12.0302 10.5363 11.3226C11.244 10.6149 12.2662 10.1431 13.367 10.1431H16.6694C17.7702 10.1431 18.7924 10.6149 19.5 11.3226C20.2077 12.0302 20.6795 13.0524 20.6795 14.1532V17.1411Z" fill="white"/>
<path d="M30.5867 8.02016C32.7884 8.02016 34.5968 6.21169 34.5968 4.01008C34.5968 1.80847 32.7884 0 30.5867 0C28.3851 0 26.5767 1.80847 26.5767 4.01008C26.5767 6.21169 28.3851 8.02016 30.5867 8.02016ZM30.5867 1.57258C31.9234 1.57258 33.0242 2.67339 33.0242 4.01008C33.0242 5.34677 31.9234 6.44758 30.5867 6.44758C29.25 6.44758 28.1492 5.34677 28.1492 4.01008C28.1492 2.59476 29.25 1.57258 30.5867 1.57258Z" fill="white"/>
<path d="M37.8205 14.1532C37.8205 11.0867 35.3044 8.57056 32.2379 8.57056H28.9354C25.8689 8.57056 23.3528 11.0867 23.3528 14.1532V18.7137H37.8205V14.1532ZM36.2479 17.1411H24.9254V14.1532C24.9254 13.0524 25.3971 12.0302 26.1048 11.3226C26.8125 10.6149 27.8346 10.1431 28.9354 10.1431H32.2379C33.3387 10.1431 34.3608 10.6149 35.0685 11.3226C35.7762 12.0302 36.2479 13.0524 36.2479 14.1532V17.1411Z" fill="white"/>
</svg>
