<svg width="44" height="45" viewBox="0 0 44 45" fill="none" xmlns="http://www.w3.org/2000/svg">
<path d="M6.86364 12.7273C10.102 12.7273 12.7273 10.102 12.7273 6.86364C12.7273 3.62524 10.102 1 6.86364 1C3.62524 1 1 3.62524 1 6.86364C1 10.102 3.62524 12.7273 6.86364 12.7273Z" stroke="white" stroke-width="2" stroke-miterlimit="10" stroke-linecap="round" stroke-linejoin="round"/>
<path d="M6.86365 12.7273V44" stroke="white" stroke-width="2" stroke-miterlimit="10" stroke-linecap="round" stroke-linejoin="round"/>
<path d="M21.4091 36.1819C24.6475 36.1819 27.2727 33.5566 27.2727 30.3182C27.2727 27.0798 24.6475 24.4546 21.4091 24.4546C18.1707 24.4546 15.5454 27.0798 15.5454 30.3182C15.5454 33.5566 18.1707 36.1819 21.4091 36.1819Z" stroke="white" stroke-width="2" stroke-miterlimit="10" stroke-linecap="round" stroke-linejoin="round"/>
<path d="M21.4091 1V24.4545" stroke="white" stroke-width="2" stroke-miterlimit="10" stroke-linecap="round" stroke-linejoin="round"/>
<path d="M21.4091 36.1818V43.9999" stroke="white" stroke-width="2" stroke-miterlimit="10" stroke-linecap="round" stroke-linejoin="round"/>
<path d="M36.9546 24.4546C40.193 24.4546 42.8182 21.8293 42.8182 18.5909C42.8182 15.3525 40.193 12.7273 36.9546 12.7273C33.7162 12.7273 31.0909 15.3525 31.0909 18.5909C31.0909 21.8293 33.7162 24.4546 36.9546 24.4546Z" stroke="white" stroke-width="2" stroke-miterlimit="10" stroke-linecap="round" stroke-linejoin="round"/>
<path d="M36.9546 24.4546V44" stroke="white" stroke-width="2" stroke-miterlimit="10" stroke-linecap="round" stroke-linejoin="round"/>
<path d="M36.9546 1V12.7273" stroke="white" stroke-width="2" stroke-miterlimit="10" stroke-linecap="round" stroke-linejoin="round"/>
</svg>
